<mxfile host="Electron" modified="2023-11-01T23:17:45.965Z" agent="Mozilla/5.0 (Windows NT 10.0; Win64; x64) AppleWebKit/537.36 (KHTML, like Gecko) draw.io/21.6.8 Chrome/114.0.5735.289 Electron/25.5.0 Safari/537.36" etag="XrzYpnNGrn5_RgPP6mLh" version="21.6.8" type="device">
  <diagram name="PÃ¡gina-1" id="1zxCoN62ttcMdRLy-pqy">
    <mxGraphModel dx="2698" dy="1638" grid="1" gridSize="10" guides="1" tooltips="1" connect="1" arrows="1" fold="1" page="1" pageScale="1" pageWidth="827" pageHeight="1169" math="0" shadow="0">
      <root>
        <mxCell id="0" />
        <mxCell id="1" parent="0" />
        <mxCell id="ABUvw_rNZOJrgvvg1hrZ-1" value="Naviera" style="swimlane;fontStyle=1;align=center;verticalAlign=top;childLayout=stackLayout;horizontal=1;startSize=26;horizontalStack=0;resizeParent=1;resizeParentMax=0;resizeLast=0;collapsible=1;marginBottom=0;whiteSpace=wrap;html=1;" parent="1" vertex="1">
          <mxGeometry x="820" width="190" height="138" as="geometry">
            <mxRectangle x="820" width="80" height="30" as="alternateBounds" />
          </mxGeometry>
        </mxCell>
        <mxCell id="ABUvw_rNZOJrgvvg1hrZ-2" value="- buques: List&amp;lt;Buque&amp;gt;" style="text;strokeColor=none;fillColor=none;align=left;verticalAlign=top;spacingLeft=4;spacingRight=4;overflow=hidden;rotatable=0;points=[[0,0.5],[1,0.5]];portConstraint=eastwest;whiteSpace=wrap;html=1;" parent="ABUvw_rNZOJrgvvg1hrZ-1" vertex="1">
          <mxGeometry y="26" width="190" height="26" as="geometry" />
        </mxCell>
        <mxCell id="ABUvw_rNZOJrgvvg1hrZ-5" value="- circuitos: List&amp;lt;CircuitoMaritimo&amp;gt;" style="text;strokeColor=none;fillColor=none;align=left;verticalAlign=top;spacingLeft=4;spacingRight=4;overflow=hidden;rotatable=0;points=[[0,0.5],[1,0.5]];portConstraint=eastwest;whiteSpace=wrap;html=1;" parent="ABUvw_rNZOJrgvvg1hrZ-1" vertex="1">
          <mxGeometry y="52" width="190" height="26" as="geometry" />
        </mxCell>
        <mxCell id="wMsCpwQgi6BDoyRRbQmV-76" value="- viajes: List&amp;lt;Viaje&amp;gt;" style="text;strokeColor=none;fillColor=none;align=left;verticalAlign=top;spacingLeft=4;spacingRight=4;overflow=hidden;rotatable=0;points=[[0,0.5],[1,0.5]];portConstraint=eastwest;whiteSpace=wrap;html=1;" parent="ABUvw_rNZOJrgvvg1hrZ-1" vertex="1">
          <mxGeometry y="78" width="190" height="26" as="geometry" />
        </mxCell>
        <mxCell id="ABUvw_rNZOJrgvvg1hrZ-3" value="" style="line;strokeWidth=1;fillColor=none;align=left;verticalAlign=middle;spacingTop=-1;spacingLeft=3;spacingRight=3;rotatable=0;labelPosition=right;points=[];portConstraint=eastwest;strokeColor=inherit;" parent="ABUvw_rNZOJrgvvg1hrZ-1" vertex="1">
          <mxGeometry y="104" width="190" height="8" as="geometry" />
        </mxCell>
        <mxCell id="ABUvw_rNZOJrgvvg1hrZ-4" value="+ method(type): type" style="text;strokeColor=none;fillColor=none;align=left;verticalAlign=top;spacingLeft=4;spacingRight=4;overflow=hidden;rotatable=0;points=[[0,0.5],[1,0.5]];portConstraint=eastwest;whiteSpace=wrap;html=1;" parent="ABUvw_rNZOJrgvvg1hrZ-1" vertex="1">
          <mxGeometry y="112" width="190" height="26" as="geometry" />
        </mxCell>
        <mxCell id="ya0v8lYfS8ipV5AFdHxH-1" style="edgeStyle=orthogonalEdgeStyle;rounded=0;orthogonalLoop=1;jettySize=auto;html=1;exitX=0.5;exitY=0;exitDx=0;exitDy=0;entryX=0.379;entryY=1.001;entryDx=0;entryDy=0;entryPerimeter=0;" parent="1" source="ABUvw_rNZOJrgvvg1hrZ-6" target="I0zZV60bpWjbYKbzvoeE-19" edge="1">
          <mxGeometry relative="1" as="geometry" />
        </mxCell>
        <mxCell id="ABUvw_rNZOJrgvvg1hrZ-6" value="TerminalGestionada" style="swimlane;fontStyle=1;align=center;verticalAlign=top;childLayout=stackLayout;horizontal=1;startSize=26;horizontalStack=0;resizeParent=1;resizeParentMax=0;resizeLast=0;collapsible=1;marginBottom=0;whiteSpace=wrap;html=1;" parent="1" vertex="1">
          <mxGeometry x="1656.5" y="250" width="305" height="370" as="geometry" />
        </mxCell>
        <mxCell id="ABUvw_rNZOJrgvvg1hrZ-7" value="- navieras: List&amp;lt;Naviera&amp;gt;" style="text;strokeColor=none;fillColor=none;align=left;verticalAlign=top;spacingLeft=4;spacingRight=4;overflow=hidden;rotatable=0;points=[[0,0.5],[1,0.5]];portConstraint=eastwest;whiteSpace=wrap;html=1;" parent="ABUvw_rNZOJrgvvg1hrZ-6" vertex="1">
          <mxGeometry y="26" width="305" height="26" as="geometry" />
        </mxCell>
        <mxCell id="I0zZV60bpWjbYKbzvoeE-28" value="- coordenadas: Punto" style="text;strokeColor=none;fillColor=none;align=left;verticalAlign=top;spacingLeft=4;spacingRight=4;overflow=hidden;rotatable=0;points=[[0,0.5],[1,0.5]];portConstraint=eastwest;whiteSpace=wrap;html=1;" parent="ABUvw_rNZOJrgvvg1hrZ-6" vertex="1">
          <mxGeometry y="52" width="305" height="26" as="geometry" />
        </mxCell>
        <mxCell id="I0zZV60bpWjbYKbzvoeE-29" value="&lt;div&gt;- filtro_mejor_circuito: CriterioCircuito&lt;/div&gt;&lt;div&gt;- shippers : List &amp;lt;Shipper&amp;gt;&lt;/div&gt;&lt;div&gt;- consignees : List&amp;lt;Consignees&amp;gt;&lt;/div&gt;&lt;div&gt;- emprTransportistas: List &amp;lt;EmpresaTransportista&amp;gt;&lt;br&gt;&lt;/div&gt;&lt;div&gt;- camiones: List&amp;lt;Camion&amp;gt;&lt;/div&gt;&lt;div&gt;- conductores: List&amp;lt;Conductor&amp;gt;&lt;/div&gt;&lt;div&gt;- ordenesImportacion: List&amp;lt;OrdenImportacion&amp;gt;&lt;br&gt;&lt;/div&gt;&lt;div&gt;-ordenesExprotacion: List&amp;lt;OrdenExportacion&amp;gt;&lt;/div&gt;&lt;div&gt;&lt;br&gt;&lt;/div&gt;" style="text;strokeColor=none;fillColor=none;align=left;verticalAlign=top;spacingLeft=4;spacingRight=4;overflow=hidden;rotatable=0;points=[[0,0.5],[1,0.5]];portConstraint=eastwest;whiteSpace=wrap;html=1;" parent="ABUvw_rNZOJrgvvg1hrZ-6" vertex="1">
          <mxGeometry y="78" width="305" height="132" as="geometry" />
        </mxCell>
        <mxCell id="ABUvw_rNZOJrgvvg1hrZ-8" value="" style="line;strokeWidth=1;fillColor=none;align=left;verticalAlign=middle;spacingTop=-1;spacingLeft=3;spacingRight=3;rotatable=0;labelPosition=right;points=[];portConstraint=eastwest;strokeColor=inherit;" parent="ABUvw_rNZOJrgvvg1hrZ-6" vertex="1">
          <mxGeometry y="210" width="305" height="8" as="geometry" />
        </mxCell>
        <mxCell id="ABUvw_rNZOJrgvvg1hrZ-9" value="&lt;div&gt;+ calcularMejorCircuito(): CircuitoMaritimo&lt;/div&gt;&lt;div&gt;+ exportar(OrdenDeExportacion): LocalDateTime&lt;/div&gt;&lt;div&gt;+ importar(OrdenDeImportacion): LocalDateTime&lt;br&gt;&lt;/div&gt;&lt;div&gt;- buscrarCircuitoMaritimo(Filtro)&lt;br&gt;+ setCriterioMejorCircuito(CriterioCircuito): void&lt;/div&gt;&lt;div&gt;+ cuantoTardaEnLlegar(Naviera, TerminalPortuaria): int&lt;/div&gt;&lt;div&gt;+ proximaSalidaBuque(TerminalPortuaria): LocalDateTime&lt;br&gt;&lt;/div&gt;" style="text;strokeColor=none;fillColor=none;align=left;verticalAlign=top;spacingLeft=4;spacingRight=4;overflow=hidden;rotatable=0;points=[[0,0.5],[1,0.5]];portConstraint=eastwest;whiteSpace=wrap;html=1;" parent="ABUvw_rNZOJrgvvg1hrZ-6" vertex="1">
          <mxGeometry y="218" width="305" height="152" as="geometry" />
        </mxCell>
        <mxCell id="ABUvw_rNZOJrgvvg1hrZ-12" value="Buque" style="swimlane;fontStyle=1;align=center;verticalAlign=top;childLayout=stackLayout;horizontal=1;startSize=26;horizontalStack=0;resizeParent=1;resizeParentMax=0;resizeLast=0;collapsible=1;marginBottom=0;whiteSpace=wrap;html=1;" parent="1" vertex="1">
          <mxGeometry x="-55" y="140" width="210" height="134" as="geometry" />
        </mxCell>
        <mxCell id="ABUvw_rNZOJrgvvg1hrZ-13" value="&lt;div&gt;+ carga: List&amp;lt;Container&amp;gt;&lt;/div&gt;&lt;div&gt;- GPS&lt;/div&gt;&lt;div&gt;- fase_del_buque: FaseDeBuque&lt;br&gt;&lt;/div&gt;&lt;div&gt;- terminal : TerminalPortuaria&lt;br&gt;&lt;/div&gt;" style="text;strokeColor=none;fillColor=none;align=left;verticalAlign=top;spacingLeft=4;spacingRight=4;overflow=hidden;rotatable=0;points=[[0,0.5],[1,0.5]];portConstraint=eastwest;whiteSpace=wrap;html=1;" parent="ABUvw_rNZOJrgvvg1hrZ-12" vertex="1">
          <mxGeometry y="26" width="210" height="74" as="geometry" />
        </mxCell>
        <mxCell id="ABUvw_rNZOJrgvvg1hrZ-14" value="" style="line;strokeWidth=1;fillColor=none;align=left;verticalAlign=middle;spacingTop=-1;spacingLeft=3;spacingRight=3;rotatable=0;labelPosition=right;points=[];portConstraint=eastwest;strokeColor=inherit;" parent="ABUvw_rNZOJrgvvg1hrZ-12" vertex="1">
          <mxGeometry y="100" width="210" height="8" as="geometry" />
        </mxCell>
        <mxCell id="ABUvw_rNZOJrgvvg1hrZ-15" value="+cambiarFase(FaseDeBuque)" style="text;strokeColor=none;fillColor=none;align=left;verticalAlign=top;spacingLeft=4;spacingRight=4;overflow=hidden;rotatable=0;points=[[0,0.5],[1,0.5]];portConstraint=eastwest;whiteSpace=wrap;html=1;" parent="ABUvw_rNZOJrgvvg1hrZ-12" vertex="1">
          <mxGeometry y="108" width="210" height="26" as="geometry" />
        </mxCell>
        <mxCell id="I0zZV60bpWjbYKbzvoeE-3" value="Container" style="swimlane;fontStyle=1;align=center;verticalAlign=top;childLayout=stackLayout;horizontal=1;startSize=26;horizontalStack=0;resizeParent=1;resizeParentMax=0;resizeLast=0;collapsible=1;marginBottom=0;whiteSpace=wrap;html=1;" parent="1" vertex="1">
          <mxGeometry x="-40" y="380" width="160" height="144" as="geometry" />
        </mxCell>
        <mxCell id="I0zZV60bpWjbYKbzvoeE-4" value="+ ancho&lt;br&gt;&lt;div&gt;+ largo&lt;/div&gt;&lt;div&gt;+ altura&lt;/div&gt;&lt;div&gt;+ peso_total&lt;/div&gt;&lt;div&gt;+ servicios: List&amp;lt;Servicio&amp;gt;&lt;/div&gt;&lt;div&gt;&lt;br&gt;&lt;/div&gt;&lt;div&gt;&lt;br&gt;&lt;/div&gt;&lt;div&gt;&lt;br&gt;&lt;/div&gt;&lt;div&gt;&lt;br&gt;&lt;/div&gt;" style="text;strokeColor=none;fillColor=none;align=left;verticalAlign=top;spacingLeft=4;spacingRight=4;overflow=hidden;rotatable=0;points=[[0,0.5],[1,0.5]];portConstraint=eastwest;whiteSpace=wrap;html=1;" parent="I0zZV60bpWjbYKbzvoeE-3" vertex="1">
          <mxGeometry y="26" width="160" height="84" as="geometry" />
        </mxCell>
        <mxCell id="I0zZV60bpWjbYKbzvoeE-5" value="" style="line;strokeWidth=1;fillColor=none;align=left;verticalAlign=middle;spacingTop=-1;spacingLeft=3;spacingRight=3;rotatable=0;labelPosition=right;points=[];portConstraint=eastwest;strokeColor=inherit;" parent="I0zZV60bpWjbYKbzvoeE-3" vertex="1">
          <mxGeometry y="110" width="160" height="8" as="geometry" />
        </mxCell>
        <mxCell id="I0zZV60bpWjbYKbzvoeE-6" value="+ consumoPorHora(): int" style="text;strokeColor=none;fillColor=none;align=left;verticalAlign=top;spacingLeft=4;spacingRight=4;overflow=hidden;rotatable=0;points=[[0,0.5],[1,0.5]];portConstraint=eastwest;whiteSpace=wrap;html=1;" parent="I0zZV60bpWjbYKbzvoeE-3" vertex="1">
          <mxGeometry y="118" width="160" height="26" as="geometry" />
        </mxCell>
        <mxCell id="vE86NBOg6e0xh6bUCSpT-1" value="ContainerDry" style="swimlane;fontStyle=1;align=center;verticalAlign=top;childLayout=stackLayout;horizontal=1;startSize=26;horizontalStack=0;resizeParent=1;resizeParentMax=0;resizeLast=0;collapsible=1;marginBottom=0;whiteSpace=wrap;html=1;" parent="1" vertex="1">
          <mxGeometry x="-260" y="598" width="160" height="34" as="geometry" />
        </mxCell>
        <mxCell id="vE86NBOg6e0xh6bUCSpT-3" value="" style="line;strokeWidth=1;fillColor=none;align=left;verticalAlign=middle;spacingTop=-1;spacingLeft=3;spacingRight=3;rotatable=0;labelPosition=right;points=[];portConstraint=eastwest;strokeColor=inherit;" parent="vE86NBOg6e0xh6bUCSpT-1" vertex="1">
          <mxGeometry y="26" width="160" height="8" as="geometry" />
        </mxCell>
        <mxCell id="vE86NBOg6e0xh6bUCSpT-9" value="ContainerTanque" style="swimlane;fontStyle=1;align=center;verticalAlign=top;childLayout=stackLayout;horizontal=1;startSize=26;horizontalStack=0;resizeParent=1;resizeParentMax=0;resizeLast=0;collapsible=1;marginBottom=0;whiteSpace=wrap;html=1;" parent="1" vertex="1">
          <mxGeometry x="-40" y="598" width="160" height="34" as="geometry" />
        </mxCell>
        <mxCell id="vE86NBOg6e0xh6bUCSpT-11" value="" style="line;strokeWidth=1;fillColor=none;align=left;verticalAlign=middle;spacingTop=-1;spacingLeft=3;spacingRight=3;rotatable=0;labelPosition=right;points=[];portConstraint=eastwest;strokeColor=inherit;" parent="vE86NBOg6e0xh6bUCSpT-9" vertex="1">
          <mxGeometry y="26" width="160" height="8" as="geometry" />
        </mxCell>
        <mxCell id="I0zZV60bpWjbYKbzvoeE-7" value="EmpresaTransportista" style="swimlane;fontStyle=1;align=center;verticalAlign=top;childLayout=stackLayout;horizontal=1;startSize=26;horizontalStack=0;resizeParent=1;resizeParentMax=0;resizeLast=0;collapsible=1;marginBottom=0;whiteSpace=wrap;html=1;" parent="1" vertex="1">
          <mxGeometry x="480" y="-197" width="180" height="112" as="geometry" />
        </mxCell>
        <mxCell id="I0zZV60bpWjbYKbzvoeE-8" value="- camiones: List&amp;lt;Camion&amp;gt;" style="text;strokeColor=none;fillColor=none;align=left;verticalAlign=top;spacingLeft=4;spacingRight=4;overflow=hidden;rotatable=0;points=[[0,0.5],[1,0.5]];portConstraint=eastwest;whiteSpace=wrap;html=1;" parent="I0zZV60bpWjbYKbzvoeE-7" vertex="1">
          <mxGeometry y="26" width="180" height="26" as="geometry" />
        </mxCell>
        <mxCell id="I0zZV60bpWjbYKbzvoeE-15" value="- conductores: List&amp;lt;Conductor&amp;gt;" style="text;strokeColor=none;fillColor=none;align=left;verticalAlign=top;spacingLeft=4;spacingRight=4;overflow=hidden;rotatable=0;points=[[0,0.5],[1,0.5]];portConstraint=eastwest;whiteSpace=wrap;html=1;" parent="I0zZV60bpWjbYKbzvoeE-7" vertex="1">
          <mxGeometry y="52" width="180" height="26" as="geometry" />
        </mxCell>
        <mxCell id="I0zZV60bpWjbYKbzvoeE-9" value="" style="line;strokeWidth=1;fillColor=none;align=left;verticalAlign=middle;spacingTop=-1;spacingLeft=3;spacingRight=3;rotatable=0;labelPosition=right;points=[];portConstraint=eastwest;strokeColor=inherit;" parent="I0zZV60bpWjbYKbzvoeE-7" vertex="1">
          <mxGeometry y="78" width="180" height="8" as="geometry" />
        </mxCell>
        <mxCell id="I0zZV60bpWjbYKbzvoeE-10" value="+ method(type): type" style="text;strokeColor=none;fillColor=none;align=left;verticalAlign=top;spacingLeft=4;spacingRight=4;overflow=hidden;rotatable=0;points=[[0,0.5],[1,0.5]];portConstraint=eastwest;whiteSpace=wrap;html=1;" parent="I0zZV60bpWjbYKbzvoeE-7" vertex="1">
          <mxGeometry y="86" width="180" height="26" as="geometry" />
        </mxCell>
        <mxCell id="I0zZV60bpWjbYKbzvoeE-11" value="Camion" style="swimlane;fontStyle=1;align=center;verticalAlign=top;childLayout=stackLayout;horizontal=1;startSize=26;horizontalStack=0;resizeParent=1;resizeParentMax=0;resizeLast=0;collapsible=1;marginBottom=0;whiteSpace=wrap;html=1;" parent="1" vertex="1">
          <mxGeometry x="827" y="-353" width="160" height="112" as="geometry" />
        </mxCell>
        <mxCell id="I0zZV60bpWjbYKbzvoeE-12" value="+ carga: Container" style="text;strokeColor=none;fillColor=none;align=left;verticalAlign=top;spacingLeft=4;spacingRight=4;overflow=hidden;rotatable=0;points=[[0,0.5],[1,0.5]];portConstraint=eastwest;whiteSpace=wrap;html=1;" parent="I0zZV60bpWjbYKbzvoeE-11" vertex="1">
          <mxGeometry y="26" width="160" height="26" as="geometry" />
        </mxCell>
        <mxCell id="I0zZV60bpWjbYKbzvoeE-26" value="+ conductor: Conductor" style="text;strokeColor=none;fillColor=none;align=left;verticalAlign=top;spacingLeft=4;spacingRight=4;overflow=hidden;rotatable=0;points=[[0,0.5],[1,0.5]];portConstraint=eastwest;whiteSpace=wrap;html=1;" parent="I0zZV60bpWjbYKbzvoeE-11" vertex="1">
          <mxGeometry y="52" width="160" height="26" as="geometry" />
        </mxCell>
        <mxCell id="I0zZV60bpWjbYKbzvoeE-13" value="" style="line;strokeWidth=1;fillColor=none;align=left;verticalAlign=middle;spacingTop=-1;spacingLeft=3;spacingRight=3;rotatable=0;labelPosition=right;points=[];portConstraint=eastwest;strokeColor=inherit;" parent="I0zZV60bpWjbYKbzvoeE-11" vertex="1">
          <mxGeometry y="78" width="160" height="8" as="geometry" />
        </mxCell>
        <mxCell id="I0zZV60bpWjbYKbzvoeE-14" value="+ method(type): type" style="text;strokeColor=none;fillColor=none;align=left;verticalAlign=top;spacingLeft=4;spacingRight=4;overflow=hidden;rotatable=0;points=[[0,0.5],[1,0.5]];portConstraint=eastwest;whiteSpace=wrap;html=1;" parent="I0zZV60bpWjbYKbzvoeE-11" vertex="1">
          <mxGeometry y="86" width="160" height="26" as="geometry" />
        </mxCell>
        <mxCell id="I0zZV60bpWjbYKbzvoeE-16" value="TerminalPortuaria" style="swimlane;fontStyle=1;align=center;verticalAlign=top;childLayout=stackLayout;horizontal=1;startSize=26;horizontalStack=0;resizeParent=1;resizeParentMax=0;resizeLast=0;collapsible=1;marginBottom=0;whiteSpace=wrap;html=1;" parent="1" vertex="1">
          <mxGeometry x="1680" y="86" width="259" height="100" as="geometry" />
        </mxCell>
        <mxCell id="I0zZV60bpWjbYKbzvoeE-17" value="- cordenadas:&amp;nbsp;Punto" style="text;strokeColor=none;fillColor=none;align=left;verticalAlign=top;spacingLeft=4;spacingRight=4;overflow=hidden;rotatable=0;points=[[0,0.5],[1,0.5]];portConstraint=eastwest;whiteSpace=wrap;html=1;" parent="I0zZV60bpWjbYKbzvoeE-16" vertex="1">
          <mxGeometry y="26" width="259" height="26" as="geometry" />
        </mxCell>
        <mxCell id="I0zZV60bpWjbYKbzvoeE-18" value="" style="line;strokeWidth=1;fillColor=none;align=left;verticalAlign=middle;spacingTop=-1;spacingLeft=3;spacingRight=3;rotatable=0;labelPosition=right;points=[];portConstraint=eastwest;strokeColor=inherit;" parent="I0zZV60bpWjbYKbzvoeE-16" vertex="1">
          <mxGeometry y="52" width="259" height="8" as="geometry" />
        </mxCell>
        <mxCell id="I0zZV60bpWjbYKbzvoeE-19" value="+ getCoordenadas(): Punto&lt;br&gt;+ calcularDistancia(TerminalPortuaria): Double" style="text;strokeColor=none;fillColor=none;align=left;verticalAlign=top;spacingLeft=4;spacingRight=4;overflow=hidden;rotatable=0;points=[[0,0.5],[1,0.5]];portConstraint=eastwest;whiteSpace=wrap;html=1;" parent="I0zZV60bpWjbYKbzvoeE-16" vertex="1">
          <mxGeometry y="60" width="259" height="40" as="geometry" />
        </mxCell>
        <mxCell id="vE86NBOg6e0xh6bUCSpT-18" value="Tramo" style="swimlane;fontStyle=1;align=center;verticalAlign=top;childLayout=stackLayout;horizontal=1;startSize=26;horizontalStack=0;resizeParent=1;resizeParentMax=0;resizeLast=0;collapsible=1;marginBottom=0;whiteSpace=wrap;html=1;" parent="1" vertex="1">
          <mxGeometry x="1369" y="112" width="190" height="144" as="geometry" />
        </mxCell>
        <mxCell id="vE86NBOg6e0xh6bUCSpT-19" value="&lt;div&gt;+ origen: TerminalPortuaria&lt;/div&gt;&lt;div&gt;+ destino: TerminalPortuaria&lt;br&gt;&lt;/div&gt;&lt;div&gt;+ distancia: Double&lt;/div&gt;&lt;div&gt;+ precio: Double&lt;/div&gt;&lt;div&gt;+ tiempo_de_recorrido: Double&lt;br&gt;&lt;/div&gt;" style="text;strokeColor=none;fillColor=none;align=left;verticalAlign=top;spacingLeft=4;spacingRight=4;overflow=hidden;rotatable=0;points=[[0,0.5],[1,0.5]];portConstraint=eastwest;whiteSpace=wrap;html=1;" parent="vE86NBOg6e0xh6bUCSpT-18" vertex="1">
          <mxGeometry y="26" width="190" height="84" as="geometry" />
        </mxCell>
        <mxCell id="vE86NBOg6e0xh6bUCSpT-20" value="" style="line;strokeWidth=1;fillColor=none;align=left;verticalAlign=middle;spacingTop=-1;spacingLeft=3;spacingRight=3;rotatable=0;labelPosition=right;points=[];portConstraint=eastwest;strokeColor=inherit;" parent="vE86NBOg6e0xh6bUCSpT-18" vertex="1">
          <mxGeometry y="110" width="190" height="8" as="geometry" />
        </mxCell>
        <mxCell id="vE86NBOg6e0xh6bUCSpT-21" value="+ method(type): type" style="text;strokeColor=none;fillColor=none;align=left;verticalAlign=top;spacingLeft=4;spacingRight=4;overflow=hidden;rotatable=0;points=[[0,0.5],[1,0.5]];portConstraint=eastwest;whiteSpace=wrap;html=1;" parent="vE86NBOg6e0xh6bUCSpT-18" vertex="1">
          <mxGeometry y="118" width="190" height="26" as="geometry" />
        </mxCell>
        <mxCell id="vE86NBOg6e0xh6bUCSpT-22" value="CircuitoMaritimo" style="swimlane;fontStyle=1;align=center;verticalAlign=top;childLayout=stackLayout;horizontal=1;startSize=26;horizontalStack=0;resizeParent=1;resizeParentMax=0;resizeLast=0;collapsible=1;marginBottom=0;whiteSpace=wrap;html=1;" parent="1" vertex="1">
          <mxGeometry x="1130" y="100" width="160" height="86" as="geometry" />
        </mxCell>
        <mxCell id="vE86NBOg6e0xh6bUCSpT-23" value="+ tramos: List&amp;lt;Tramo&amp;gt;" style="text;strokeColor=none;fillColor=none;align=left;verticalAlign=top;spacingLeft=4;spacingRight=4;overflow=hidden;rotatable=0;points=[[0,0.5],[1,0.5]];portConstraint=eastwest;whiteSpace=wrap;html=1;" parent="vE86NBOg6e0xh6bUCSpT-22" vertex="1">
          <mxGeometry y="26" width="160" height="26" as="geometry" />
        </mxCell>
        <mxCell id="vE86NBOg6e0xh6bUCSpT-24" value="" style="line;strokeWidth=1;fillColor=none;align=left;verticalAlign=middle;spacingTop=-1;spacingLeft=3;spacingRight=3;rotatable=0;labelPosition=right;points=[];portConstraint=eastwest;strokeColor=inherit;" parent="vE86NBOg6e0xh6bUCSpT-22" vertex="1">
          <mxGeometry y="52" width="160" height="8" as="geometry" />
        </mxCell>
        <mxCell id="vE86NBOg6e0xh6bUCSpT-25" value="+ method(type): type" style="text;strokeColor=none;fillColor=none;align=left;verticalAlign=top;spacingLeft=4;spacingRight=4;overflow=hidden;rotatable=0;points=[[0,0.5],[1,0.5]];portConstraint=eastwest;whiteSpace=wrap;html=1;" parent="vE86NBOg6e0xh6bUCSpT-22" vertex="1">
          <mxGeometry y="60" width="160" height="26" as="geometry" />
        </mxCell>
        <mxCell id="I0zZV60bpWjbYKbzvoeE-30" value="Filtro" style="swimlane;fontStyle=1;align=center;verticalAlign=top;childLayout=stackLayout;horizontal=1;startSize=26;horizontalStack=0;resizeParent=1;resizeParentMax=0;resizeLast=0;collapsible=1;marginBottom=0;whiteSpace=wrap;html=1;" parent="1" vertex="1">
          <mxGeometry x="497" y="398" width="390" height="86" as="geometry" />
        </mxCell>
        <mxCell id="I0zZV60bpWjbYKbzvoeE-31" value="+ field: type" style="text;strokeColor=none;fillColor=none;align=left;verticalAlign=top;spacingLeft=4;spacingRight=4;overflow=hidden;rotatable=0;points=[[0,0.5],[1,0.5]];portConstraint=eastwest;whiteSpace=wrap;html=1;" parent="I0zZV60bpWjbYKbzvoeE-30" vertex="1">
          <mxGeometry y="26" width="390" height="26" as="geometry" />
        </mxCell>
        <mxCell id="I0zZV60bpWjbYKbzvoeE-32" value="" style="line;strokeWidth=1;fillColor=none;align=left;verticalAlign=middle;spacingTop=-1;spacingLeft=3;spacingRight=3;rotatable=0;labelPosition=right;points=[];portConstraint=eastwest;strokeColor=inherit;" parent="I0zZV60bpWjbYKbzvoeE-30" vertex="1">
          <mxGeometry y="52" width="390" height="8" as="geometry" />
        </mxCell>
        <mxCell id="I0zZV60bpWjbYKbzvoeE-33" value="+ filtrar()" style="text;strokeColor=none;fillColor=none;align=left;verticalAlign=top;spacingLeft=4;spacingRight=4;overflow=hidden;rotatable=0;points=[[0,0.5],[1,0.5]];portConstraint=eastwest;whiteSpace=wrap;html=1;fontStyle=2" parent="I0zZV60bpWjbYKbzvoeE-30" vertex="1">
          <mxGeometry y="60" width="390" height="26" as="geometry" />
        </mxCell>
        <mxCell id="I0zZV60bpWjbYKbzvoeE-34" value="esPuertoDestino" style="swimlane;fontStyle=1;align=center;verticalAlign=top;childLayout=stackLayout;horizontal=1;startSize=26;horizontalStack=0;resizeParent=1;resizeParentMax=0;resizeLast=0;collapsible=1;marginBottom=0;whiteSpace=wrap;html=1;" parent="1" vertex="1">
          <mxGeometry x="414" y="598" width="160" height="86" as="geometry" />
        </mxCell>
        <mxCell id="I0zZV60bpWjbYKbzvoeE-35" value="+ field: type" style="text;strokeColor=none;fillColor=none;align=left;verticalAlign=top;spacingLeft=4;spacingRight=4;overflow=hidden;rotatable=0;points=[[0,0.5],[1,0.5]];portConstraint=eastwest;whiteSpace=wrap;html=1;" parent="I0zZV60bpWjbYKbzvoeE-34" vertex="1">
          <mxGeometry y="26" width="160" height="26" as="geometry" />
        </mxCell>
        <mxCell id="I0zZV60bpWjbYKbzvoeE-36" value="" style="line;strokeWidth=1;fillColor=none;align=left;verticalAlign=middle;spacingTop=-1;spacingLeft=3;spacingRight=3;rotatable=0;labelPosition=right;points=[];portConstraint=eastwest;strokeColor=inherit;" parent="I0zZV60bpWjbYKbzvoeE-34" vertex="1">
          <mxGeometry y="52" width="160" height="8" as="geometry" />
        </mxCell>
        <mxCell id="I0zZV60bpWjbYKbzvoeE-37" value="+ filtrar()" style="text;strokeColor=none;fillColor=none;align=left;verticalAlign=top;spacingLeft=4;spacingRight=4;overflow=hidden;rotatable=0;points=[[0,0.5],[1,0.5]];portConstraint=eastwest;whiteSpace=wrap;html=1;" parent="I0zZV60bpWjbYKbzvoeE-34" vertex="1">
          <mxGeometry y="60" width="160" height="26" as="geometry" />
        </mxCell>
        <mxCell id="I0zZV60bpWjbYKbzvoeE-38" value="LlegaEn" style="swimlane;fontStyle=1;align=center;verticalAlign=top;childLayout=stackLayout;horizontal=1;startSize=26;horizontalStack=0;resizeParent=1;resizeParentMax=0;resizeLast=0;collapsible=1;marginBottom=0;whiteSpace=wrap;html=1;" parent="1" vertex="1">
          <mxGeometry x="610" y="598" width="160" height="86" as="geometry" />
        </mxCell>
        <mxCell id="I0zZV60bpWjbYKbzvoeE-39" value="+ field: type" style="text;strokeColor=none;fillColor=none;align=left;verticalAlign=top;spacingLeft=4;spacingRight=4;overflow=hidden;rotatable=0;points=[[0,0.5],[1,0.5]];portConstraint=eastwest;whiteSpace=wrap;html=1;" parent="I0zZV60bpWjbYKbzvoeE-38" vertex="1">
          <mxGeometry y="26" width="160" height="26" as="geometry" />
        </mxCell>
        <mxCell id="I0zZV60bpWjbYKbzvoeE-40" value="" style="line;strokeWidth=1;fillColor=none;align=left;verticalAlign=middle;spacingTop=-1;spacingLeft=3;spacingRight=3;rotatable=0;labelPosition=right;points=[];portConstraint=eastwest;strokeColor=inherit;" parent="I0zZV60bpWjbYKbzvoeE-38" vertex="1">
          <mxGeometry y="52" width="160" height="8" as="geometry" />
        </mxCell>
        <mxCell id="I0zZV60bpWjbYKbzvoeE-41" value="+ filtrar()" style="text;strokeColor=none;fillColor=none;align=left;verticalAlign=top;spacingLeft=4;spacingRight=4;overflow=hidden;rotatable=0;points=[[0,0.5],[1,0.5]];portConstraint=eastwest;whiteSpace=wrap;html=1;" parent="I0zZV60bpWjbYKbzvoeE-38" vertex="1">
          <mxGeometry y="60" width="160" height="26" as="geometry" />
        </mxCell>
        <mxCell id="I0zZV60bpWjbYKbzvoeE-42" value="SaleEn" style="swimlane;fontStyle=1;align=center;verticalAlign=top;childLayout=stackLayout;horizontal=1;startSize=26;horizontalStack=0;resizeParent=1;resizeParentMax=0;resizeLast=0;collapsible=1;marginBottom=0;whiteSpace=wrap;html=1;" parent="1" vertex="1">
          <mxGeometry x="812" y="598" width="160" height="86" as="geometry" />
        </mxCell>
        <mxCell id="I0zZV60bpWjbYKbzvoeE-43" value="+ field: type" style="text;strokeColor=none;fillColor=none;align=left;verticalAlign=top;spacingLeft=4;spacingRight=4;overflow=hidden;rotatable=0;points=[[0,0.5],[1,0.5]];portConstraint=eastwest;whiteSpace=wrap;html=1;" parent="I0zZV60bpWjbYKbzvoeE-42" vertex="1">
          <mxGeometry y="26" width="160" height="26" as="geometry" />
        </mxCell>
        <mxCell id="I0zZV60bpWjbYKbzvoeE-44" value="" style="line;strokeWidth=1;fillColor=none;align=left;verticalAlign=middle;spacingTop=-1;spacingLeft=3;spacingRight=3;rotatable=0;labelPosition=right;points=[];portConstraint=eastwest;strokeColor=inherit;" parent="I0zZV60bpWjbYKbzvoeE-42" vertex="1">
          <mxGeometry y="52" width="160" height="8" as="geometry" />
        </mxCell>
        <mxCell id="I0zZV60bpWjbYKbzvoeE-45" value="+ filtrar()" style="text;strokeColor=none;fillColor=none;align=left;verticalAlign=top;spacingLeft=4;spacingRight=4;overflow=hidden;rotatable=0;points=[[0,0.5],[1,0.5]];portConstraint=eastwest;whiteSpace=wrap;html=1;" parent="I0zZV60bpWjbYKbzvoeE-42" vertex="1">
          <mxGeometry y="60" width="160" height="26" as="geometry" />
        </mxCell>
        <mxCell id="wMsCpwQgi6BDoyRRbQmV-50" style="edgeStyle=orthogonalEdgeStyle;rounded=0;orthogonalLoop=1;jettySize=auto;html=1;exitX=0.5;exitY=0;exitDx=0;exitDy=0;entryX=0.5;entryY=1;entryDx=0;entryDy=0;" parent="1" source="vE86NBOg6e0xh6bUCSpT-35" target="wMsCpwQgi6BDoyRRbQmV-47" edge="1">
          <mxGeometry relative="1" as="geometry" />
        </mxCell>
        <mxCell id="vE86NBOg6e0xh6bUCSpT-35" value="FaseDeBuqueOutbound" style="swimlane;fontStyle=1;align=center;verticalAlign=top;childLayout=stackLayout;horizontal=1;startSize=26;horizontalStack=0;resizeParent=1;resizeParentMax=0;resizeLast=0;collapsible=1;marginBottom=0;whiteSpace=wrap;html=1;" parent="1" vertex="1">
          <mxGeometry x="-930" y="153" width="160" height="86" as="geometry" />
        </mxCell>
        <mxCell id="vE86NBOg6e0xh6bUCSpT-36" value="+ field: type" style="text;strokeColor=none;fillColor=none;align=left;verticalAlign=top;spacingLeft=4;spacingRight=4;overflow=hidden;rotatable=0;points=[[0,0.5],[1,0.5]];portConstraint=eastwest;whiteSpace=wrap;html=1;" parent="vE86NBOg6e0xh6bUCSpT-35" vertex="1">
          <mxGeometry y="26" width="160" height="26" as="geometry" />
        </mxCell>
        <mxCell id="vE86NBOg6e0xh6bUCSpT-37" value="" style="line;strokeWidth=1;fillColor=none;align=left;verticalAlign=middle;spacingTop=-1;spacingLeft=3;spacingRight=3;rotatable=0;labelPosition=right;points=[];portConstraint=eastwest;strokeColor=inherit;" parent="vE86NBOg6e0xh6bUCSpT-35" vertex="1">
          <mxGeometry y="52" width="160" height="8" as="geometry" />
        </mxCell>
        <mxCell id="vE86NBOg6e0xh6bUCSpT-38" value="+ method(type): type" style="text;strokeColor=none;fillColor=none;align=left;verticalAlign=top;spacingLeft=4;spacingRight=4;overflow=hidden;rotatable=0;points=[[0,0.5],[1,0.5]];portConstraint=eastwest;whiteSpace=wrap;html=1;" parent="vE86NBOg6e0xh6bUCSpT-35" vertex="1">
          <mxGeometry y="60" width="160" height="26" as="geometry" />
        </mxCell>
        <mxCell id="wMsCpwQgi6BDoyRRbQmV-51" style="edgeStyle=orthogonalEdgeStyle;rounded=0;orthogonalLoop=1;jettySize=auto;html=1;exitX=0.5;exitY=0;exitDx=0;exitDy=0;entryX=0.5;entryY=1;entryDx=0;entryDy=0;" parent="1" source="vE86NBOg6e0xh6bUCSpT-39" target="wMsCpwQgi6BDoyRRbQmV-47" edge="1">
          <mxGeometry relative="1" as="geometry" />
        </mxCell>
        <mxCell id="vE86NBOg6e0xh6bUCSpT-39" value="FaseDeBuqueInbound" style="swimlane;fontStyle=1;align=center;verticalAlign=top;childLayout=stackLayout;horizontal=1;startSize=26;horizontalStack=0;resizeParent=1;resizeParentMax=0;resizeLast=0;collapsible=1;marginBottom=0;whiteSpace=wrap;html=1;" parent="1" vertex="1">
          <mxGeometry x="-810" y="264" width="160" height="86" as="geometry" />
        </mxCell>
        <mxCell id="vE86NBOg6e0xh6bUCSpT-40" value="+ field: type" style="text;strokeColor=none;fillColor=none;align=left;verticalAlign=top;spacingLeft=4;spacingRight=4;overflow=hidden;rotatable=0;points=[[0,0.5],[1,0.5]];portConstraint=eastwest;whiteSpace=wrap;html=1;" parent="vE86NBOg6e0xh6bUCSpT-39" vertex="1">
          <mxGeometry y="26" width="160" height="26" as="geometry" />
        </mxCell>
        <mxCell id="vE86NBOg6e0xh6bUCSpT-41" value="" style="line;strokeWidth=1;fillColor=none;align=left;verticalAlign=middle;spacingTop=-1;spacingLeft=3;spacingRight=3;rotatable=0;labelPosition=right;points=[];portConstraint=eastwest;strokeColor=inherit;" parent="vE86NBOg6e0xh6bUCSpT-39" vertex="1">
          <mxGeometry y="52" width="160" height="8" as="geometry" />
        </mxCell>
        <mxCell id="vE86NBOg6e0xh6bUCSpT-42" value="+ method(type): type" style="text;strokeColor=none;fillColor=none;align=left;verticalAlign=top;spacingLeft=4;spacingRight=4;overflow=hidden;rotatable=0;points=[[0,0.5],[1,0.5]];portConstraint=eastwest;whiteSpace=wrap;html=1;" parent="vE86NBOg6e0xh6bUCSpT-39" vertex="1">
          <mxGeometry y="60" width="160" height="26" as="geometry" />
        </mxCell>
        <mxCell id="wMsCpwQgi6BDoyRRbQmV-54" style="edgeStyle=orthogonalEdgeStyle;rounded=0;orthogonalLoop=1;jettySize=auto;html=1;exitX=0.5;exitY=0;exitDx=0;exitDy=0;entryX=0.5;entryY=1;entryDx=0;entryDy=0;" parent="1" source="vE86NBOg6e0xh6bUCSpT-43" target="wMsCpwQgi6BDoyRRbQmV-47" edge="1">
          <mxGeometry relative="1" as="geometry" />
        </mxCell>
        <mxCell id="vE86NBOg6e0xh6bUCSpT-43" value="FaseDeBuqueWorking" style="swimlane;fontStyle=1;align=center;verticalAlign=top;childLayout=stackLayout;horizontal=1;startSize=26;horizontalStack=0;resizeParent=1;resizeParentMax=0;resizeLast=0;collapsible=1;marginBottom=0;whiteSpace=wrap;html=1;" parent="1" vertex="1">
          <mxGeometry x="-450" y="264" width="160" height="86" as="geometry" />
        </mxCell>
        <mxCell id="vE86NBOg6e0xh6bUCSpT-44" value="+ field: type" style="text;strokeColor=none;fillColor=none;align=left;verticalAlign=top;spacingLeft=4;spacingRight=4;overflow=hidden;rotatable=0;points=[[0,0.5],[1,0.5]];portConstraint=eastwest;whiteSpace=wrap;html=1;" parent="vE86NBOg6e0xh6bUCSpT-43" vertex="1">
          <mxGeometry y="26" width="160" height="26" as="geometry" />
        </mxCell>
        <mxCell id="vE86NBOg6e0xh6bUCSpT-45" value="" style="line;strokeWidth=1;fillColor=none;align=left;verticalAlign=middle;spacingTop=-1;spacingLeft=3;spacingRight=3;rotatable=0;labelPosition=right;points=[];portConstraint=eastwest;strokeColor=inherit;" parent="vE86NBOg6e0xh6bUCSpT-43" vertex="1">
          <mxGeometry y="52" width="160" height="8" as="geometry" />
        </mxCell>
        <mxCell id="vE86NBOg6e0xh6bUCSpT-46" value="+ method(type): type" style="text;strokeColor=none;fillColor=none;align=left;verticalAlign=top;spacingLeft=4;spacingRight=4;overflow=hidden;rotatable=0;points=[[0,0.5],[1,0.5]];portConstraint=eastwest;whiteSpace=wrap;html=1;" parent="vE86NBOg6e0xh6bUCSpT-43" vertex="1">
          <mxGeometry y="60" width="160" height="26" as="geometry" />
        </mxCell>
        <mxCell id="wMsCpwQgi6BDoyRRbQmV-52" style="edgeStyle=orthogonalEdgeStyle;rounded=0;orthogonalLoop=1;jettySize=auto;html=1;exitX=0.5;exitY=0;exitDx=0;exitDy=0;entryX=0.5;entryY=1;entryDx=0;entryDy=0;" parent="1" source="vE86NBOg6e0xh6bUCSpT-47" target="wMsCpwQgi6BDoyRRbQmV-47" edge="1">
          <mxGeometry relative="1" as="geometry" />
        </mxCell>
        <mxCell id="vE86NBOg6e0xh6bUCSpT-47" value="FaseDeBuqueArrived" style="swimlane;fontStyle=1;align=center;verticalAlign=top;childLayout=stackLayout;horizontal=1;startSize=26;horizontalStack=0;resizeParent=1;resizeParentMax=0;resizeLast=0;collapsible=1;marginBottom=0;whiteSpace=wrap;html=1;" parent="1" vertex="1">
          <mxGeometry x="-630" y="264" width="160" height="86" as="geometry" />
        </mxCell>
        <mxCell id="vE86NBOg6e0xh6bUCSpT-48" value="+ field: type" style="text;strokeColor=none;fillColor=none;align=left;verticalAlign=top;spacingLeft=4;spacingRight=4;overflow=hidden;rotatable=0;points=[[0,0.5],[1,0.5]];portConstraint=eastwest;whiteSpace=wrap;html=1;" parent="vE86NBOg6e0xh6bUCSpT-47" vertex="1">
          <mxGeometry y="26" width="160" height="26" as="geometry" />
        </mxCell>
        <mxCell id="vE86NBOg6e0xh6bUCSpT-49" value="" style="line;strokeWidth=1;fillColor=none;align=left;verticalAlign=middle;spacingTop=-1;spacingLeft=3;spacingRight=3;rotatable=0;labelPosition=right;points=[];portConstraint=eastwest;strokeColor=inherit;" parent="vE86NBOg6e0xh6bUCSpT-47" vertex="1">
          <mxGeometry y="52" width="160" height="8" as="geometry" />
        </mxCell>
        <mxCell id="vE86NBOg6e0xh6bUCSpT-50" value="+ method(type): type" style="text;strokeColor=none;fillColor=none;align=left;verticalAlign=top;spacingLeft=4;spacingRight=4;overflow=hidden;rotatable=0;points=[[0,0.5],[1,0.5]];portConstraint=eastwest;whiteSpace=wrap;html=1;" parent="vE86NBOg6e0xh6bUCSpT-47" vertex="1">
          <mxGeometry y="60" width="160" height="26" as="geometry" />
        </mxCell>
        <mxCell id="wMsCpwQgi6BDoyRRbQmV-53" style="edgeStyle=orthogonalEdgeStyle;rounded=0;orthogonalLoop=1;jettySize=auto;html=1;exitX=0.5;exitY=0;exitDx=0;exitDy=0;entryX=0.5;entryY=1;entryDx=0;entryDy=0;" parent="1" source="vE86NBOg6e0xh6bUCSpT-51" target="wMsCpwQgi6BDoyRRbQmV-47" edge="1">
          <mxGeometry relative="1" as="geometry" />
        </mxCell>
        <mxCell id="vE86NBOg6e0xh6bUCSpT-51" value="FaseDeBuqueDeparting" style="swimlane;fontStyle=1;align=center;verticalAlign=top;childLayout=stackLayout;horizontal=1;startSize=26;horizontalStack=0;resizeParent=1;resizeParentMax=0;resizeLast=0;collapsible=1;marginBottom=0;whiteSpace=wrap;html=1;" parent="1" vertex="1">
          <mxGeometry x="-330" y="152" width="160" height="86" as="geometry" />
        </mxCell>
        <mxCell id="vE86NBOg6e0xh6bUCSpT-52" value="+ field: type" style="text;strokeColor=none;fillColor=none;align=left;verticalAlign=top;spacingLeft=4;spacingRight=4;overflow=hidden;rotatable=0;points=[[0,0.5],[1,0.5]];portConstraint=eastwest;whiteSpace=wrap;html=1;" parent="vE86NBOg6e0xh6bUCSpT-51" vertex="1">
          <mxGeometry y="26" width="160" height="26" as="geometry" />
        </mxCell>
        <mxCell id="vE86NBOg6e0xh6bUCSpT-53" value="" style="line;strokeWidth=1;fillColor=none;align=left;verticalAlign=middle;spacingTop=-1;spacingLeft=3;spacingRight=3;rotatable=0;labelPosition=right;points=[];portConstraint=eastwest;strokeColor=inherit;" parent="vE86NBOg6e0xh6bUCSpT-51" vertex="1">
          <mxGeometry y="52" width="160" height="8" as="geometry" />
        </mxCell>
        <mxCell id="vE86NBOg6e0xh6bUCSpT-54" value="+ method(type): type" style="text;strokeColor=none;fillColor=none;align=left;verticalAlign=top;spacingLeft=4;spacingRight=4;overflow=hidden;rotatable=0;points=[[0,0.5],[1,0.5]];portConstraint=eastwest;whiteSpace=wrap;html=1;" parent="vE86NBOg6e0xh6bUCSpT-51" vertex="1">
          <mxGeometry y="60" width="160" height="26" as="geometry" />
        </mxCell>
        <mxCell id="vE86NBOg6e0xh6bUCSpT-62" value="&lt;div&gt;Orden&lt;/div&gt;&lt;div&gt;&lt;br&gt;&lt;/div&gt;" style="swimlane;fontStyle=1;align=center;verticalAlign=top;childLayout=stackLayout;horizontal=1;startSize=26;horizontalStack=0;resizeParent=1;resizeParentMax=0;resizeLast=0;collapsible=1;marginBottom=0;whiteSpace=wrap;html=1;" parent="1" vertex="1">
          <mxGeometry x="120" y="-690" width="250" height="174" as="geometry" />
        </mxCell>
        <mxCell id="vE86NBOg6e0xh6bUCSpT-63" value="&lt;div&gt;+ terminal_de_destino: TerminalPortuaria&lt;br&gt;&lt;/div&gt;&lt;div&gt;&lt;span style=&quot;background-color: initial;&quot;&gt;+ circuito_elegido: CircuitoMaritimo&lt;/span&gt;&lt;br&gt;&lt;/div&gt;&lt;div&gt;+ camion_asignado: Camion&lt;/div&gt;&lt;div&gt;+ chofer_asignado: Chofer&lt;/div&gt;&lt;div&gt;+ carga: Container&lt;br&gt;&lt;/div&gt;" style="text;strokeColor=none;fillColor=none;align=left;verticalAlign=top;spacingLeft=4;spacingRight=4;overflow=hidden;rotatable=0;points=[[0,0.5],[1,0.5]];portConstraint=eastwest;whiteSpace=wrap;html=1;" parent="vE86NBOg6e0xh6bUCSpT-62" vertex="1">
          <mxGeometry y="26" width="250" height="114" as="geometry" />
        </mxCell>
        <mxCell id="vE86NBOg6e0xh6bUCSpT-64" value="" style="line;strokeWidth=1;fillColor=none;align=left;verticalAlign=middle;spacingTop=-1;spacingLeft=3;spacingRight=3;rotatable=0;labelPosition=right;points=[];portConstraint=eastwest;strokeColor=inherit;" parent="vE86NBOg6e0xh6bUCSpT-62" vertex="1">
          <mxGeometry y="140" width="250" height="8" as="geometry" />
        </mxCell>
        <mxCell id="vE86NBOg6e0xh6bUCSpT-65" value="+ method(type): type" style="text;strokeColor=none;fillColor=none;align=left;verticalAlign=top;spacingLeft=4;spacingRight=4;overflow=hidden;rotatable=0;points=[[0,0.5],[1,0.5]];portConstraint=eastwest;whiteSpace=wrap;html=1;" parent="vE86NBOg6e0xh6bUCSpT-62" vertex="1">
          <mxGeometry y="148" width="250" height="26" as="geometry" />
        </mxCell>
        <mxCell id="wMsCpwQgi6BDoyRRbQmV-7" value="" style="endArrow=open;endFill=1;endSize=12;html=1;rounded=0;exitX=1;exitY=0.5;exitDx=0;exitDy=0;entryX=0;entryY=0.5;entryDx=0;entryDy=0;edgeStyle=orthogonalEdgeStyle;" parent="1" source="vE86NBOg6e0xh6bUCSpT-23" target="vE86NBOg6e0xh6bUCSpT-19" edge="1">
          <mxGeometry width="160" relative="1" as="geometry">
            <mxPoint x="1370" y="160" as="sourcePoint" />
            <mxPoint x="1530" y="160" as="targetPoint" />
          </mxGeometry>
        </mxCell>
        <mxCell id="wMsCpwQgi6BDoyRRbQmV-8" value="Tramos" style="edgeLabel;html=1;align=center;verticalAlign=middle;resizable=0;points=[];" parent="wMsCpwQgi6BDoyRRbQmV-7" vertex="1" connectable="0">
          <mxGeometry x="-0.5839" y="3" relative="1" as="geometry">
            <mxPoint as="offset" />
          </mxGeometry>
        </mxCell>
        <mxCell id="wMsCpwQgi6BDoyRRbQmV-9" value="&lt;font style=&quot;font-size: 20px;&quot;&gt;*&lt;/font&gt;" style="edgeLabel;html=1;align=center;verticalAlign=middle;resizable=0;points=[];" parent="wMsCpwQgi6BDoyRRbQmV-7" vertex="1" connectable="0">
          <mxGeometry x="0.7742" y="4" relative="1" as="geometry">
            <mxPoint x="-3" y="-1" as="offset" />
          </mxGeometry>
        </mxCell>
        <mxCell id="wMsCpwQgi6BDoyRRbQmV-10" value="" style="endArrow=open;endFill=1;endSize=12;html=1;rounded=0;exitX=1.009;exitY=0.146;exitDx=0;exitDy=0;exitPerimeter=0;entryX=0;entryY=0.5;entryDx=0;entryDy=0;edgeStyle=orthogonalEdgeStyle;" parent="1" source="vE86NBOg6e0xh6bUCSpT-19" target="I0zZV60bpWjbYKbzvoeE-17" edge="1">
          <mxGeometry width="160" relative="1" as="geometry">
            <mxPoint x="1370" y="160" as="sourcePoint" />
            <mxPoint x="1530" y="160" as="targetPoint" />
          </mxGeometry>
        </mxCell>
        <mxCell id="wMsCpwQgi6BDoyRRbQmV-13" value="origen" style="edgeLabel;html=1;align=center;verticalAlign=middle;resizable=0;points=[];" parent="wMsCpwQgi6BDoyRRbQmV-10" vertex="1" connectable="0">
          <mxGeometry x="-0.8037" y="2" relative="1" as="geometry">
            <mxPoint as="offset" />
          </mxGeometry>
        </mxCell>
        <mxCell id="wMsCpwQgi6BDoyRRbQmV-12" value="" style="endArrow=open;endFill=1;endSize=12;html=1;rounded=0;exitX=1;exitY=0.5;exitDx=0;exitDy=0;entryX=0;entryY=0.5;entryDx=0;entryDy=0;edgeStyle=orthogonalEdgeStyle;" parent="1" source="vE86NBOg6e0xh6bUCSpT-19" target="I0zZV60bpWjbYKbzvoeE-17" edge="1">
          <mxGeometry width="160" relative="1" as="geometry">
            <mxPoint x="1370" y="160" as="sourcePoint" />
            <mxPoint x="1530" y="160" as="targetPoint" />
          </mxGeometry>
        </mxCell>
        <mxCell id="wMsCpwQgi6BDoyRRbQmV-14" value="destino" style="edgeLabel;html=1;align=center;verticalAlign=middle;resizable=0;points=[];" parent="wMsCpwQgi6BDoyRRbQmV-12" vertex="1" connectable="0">
          <mxGeometry x="-0.8055" y="4" relative="1" as="geometry">
            <mxPoint x="1" as="offset" />
          </mxGeometry>
        </mxCell>
        <mxCell id="wMsCpwQgi6BDoyRRbQmV-15" value="&lt;font style=&quot;font-size: 20px;&quot;&gt;1&lt;/font&gt;" style="edgeLabel;html=1;align=center;verticalAlign=middle;resizable=0;points=[];" parent="wMsCpwQgi6BDoyRRbQmV-12" vertex="1" connectable="0">
          <mxGeometry x="0.8489" y="2" relative="1" as="geometry">
            <mxPoint x="-4" y="-7" as="offset" />
          </mxGeometry>
        </mxCell>
        <mxCell id="wMsCpwQgi6BDoyRRbQmV-17" style="edgeStyle=orthogonalEdgeStyle;rounded=0;orthogonalLoop=1;jettySize=auto;html=1;exitX=1;exitY=0.5;exitDx=0;exitDy=0;entryX=0;entryY=0.5;entryDx=0;entryDy=0;" parent="1" source="ABUvw_rNZOJrgvvg1hrZ-5" target="vE86NBOg6e0xh6bUCSpT-23" edge="1">
          <mxGeometry relative="1" as="geometry" />
        </mxCell>
        <mxCell id="wMsCpwQgi6BDoyRRbQmV-18" value="circuitos" style="edgeLabel;html=1;align=center;verticalAlign=middle;resizable=0;points=[];" parent="wMsCpwQgi6BDoyRRbQmV-17" vertex="1" connectable="0">
          <mxGeometry x="-0.8073" relative="1" as="geometry">
            <mxPoint x="8" y="-7" as="offset" />
          </mxGeometry>
        </mxCell>
        <mxCell id="wMsCpwQgi6BDoyRRbQmV-19" value="&lt;font style=&quot;font-size: 20px;&quot;&gt;*&lt;/font&gt;" style="edgeLabel;html=1;align=center;verticalAlign=middle;resizable=0;points=[];" parent="wMsCpwQgi6BDoyRRbQmV-17" vertex="1" connectable="0">
          <mxGeometry x="0.8216" y="2" relative="1" as="geometry">
            <mxPoint x="-3" y="-2" as="offset" />
          </mxGeometry>
        </mxCell>
        <mxCell id="wMsCpwQgi6BDoyRRbQmV-20" value="Buscador" style="swimlane;fontStyle=1;align=center;verticalAlign=top;childLayout=stackLayout;horizontal=1;startSize=26;horizontalStack=0;resizeParent=1;resizeParentMax=0;resizeLast=0;collapsible=1;marginBottom=0;whiteSpace=wrap;html=1;" parent="1" vertex="1">
          <mxGeometry x="-140" y="-190" width="160" height="86" as="geometry" />
        </mxCell>
        <mxCell id="wMsCpwQgi6BDoyRRbQmV-21" value="+ naviera" style="text;strokeColor=none;fillColor=none;align=left;verticalAlign=top;spacingLeft=4;spacingRight=4;overflow=hidden;rotatable=0;points=[[0,0.5],[1,0.5]];portConstraint=eastwest;whiteSpace=wrap;html=1;" parent="wMsCpwQgi6BDoyRRbQmV-20" vertex="1">
          <mxGeometry y="26" width="160" height="26" as="geometry" />
        </mxCell>
        <mxCell id="wMsCpwQgi6BDoyRRbQmV-22" value="" style="line;strokeWidth=1;fillColor=none;align=left;verticalAlign=middle;spacingTop=-1;spacingLeft=3;spacingRight=3;rotatable=0;labelPosition=right;points=[];portConstraint=eastwest;strokeColor=inherit;" parent="wMsCpwQgi6BDoyRRbQmV-20" vertex="1">
          <mxGeometry y="52" width="160" height="8" as="geometry" />
        </mxCell>
        <mxCell id="wMsCpwQgi6BDoyRRbQmV-23" value="+ buscar(filtro)" style="text;strokeColor=none;fillColor=none;align=left;verticalAlign=top;spacingLeft=4;spacingRight=4;overflow=hidden;rotatable=0;points=[[0,0.5],[1,0.5]];portConstraint=eastwest;whiteSpace=wrap;html=1;" parent="wMsCpwQgi6BDoyRRbQmV-20" vertex="1">
          <mxGeometry y="60" width="160" height="26" as="geometry" />
        </mxCell>
        <mxCell id="wMsCpwQgi6BDoyRRbQmV-25" value="CriterioCircuito" style="swimlane;fontStyle=1;align=center;verticalAlign=top;childLayout=stackLayout;horizontal=1;startSize=26;horizontalStack=0;resizeParent=1;resizeParentMax=0;resizeLast=0;collapsible=1;marginBottom=0;whiteSpace=wrap;html=1;" parent="1" vertex="1">
          <mxGeometry x="-600" y="-380" width="190" height="86" as="geometry" />
        </mxCell>
        <mxCell id="wMsCpwQgi6BDoyRRbQmV-26" value="&lt;div&gt;- Comparator(CircuitoMaritimo)&lt;/div&gt;&lt;div&gt;&lt;br&gt;&lt;/div&gt;" style="text;strokeColor=none;fillColor=none;align=left;verticalAlign=top;spacingLeft=4;spacingRight=4;overflow=hidden;rotatable=0;points=[[0,0.5],[1,0.5]];portConstraint=eastwest;whiteSpace=wrap;html=1;" parent="wMsCpwQgi6BDoyRRbQmV-25" vertex="1">
          <mxGeometry y="26" width="190" height="26" as="geometry" />
        </mxCell>
        <mxCell id="wMsCpwQgi6BDoyRRbQmV-27" value="" style="line;strokeWidth=1;fillColor=none;align=left;verticalAlign=middle;spacingTop=-1;spacingLeft=3;spacingRight=3;rotatable=0;labelPosition=right;points=[];portConstraint=eastwest;strokeColor=inherit;" parent="wMsCpwQgi6BDoyRRbQmV-25" vertex="1">
          <mxGeometry y="52" width="190" height="8" as="geometry" />
        </mxCell>
        <mxCell id="wMsCpwQgi6BDoyRRbQmV-28" value="+ buscar(List&amp;lt;CircuitoMaritimo&amp;gt;)" style="text;strokeColor=none;fillColor=none;align=left;verticalAlign=top;spacingLeft=4;spacingRight=4;overflow=hidden;rotatable=0;points=[[0,0.5],[1,0.5]];portConstraint=eastwest;whiteSpace=wrap;html=1;" parent="wMsCpwQgi6BDoyRRbQmV-25" vertex="1">
          <mxGeometry y="60" width="190" height="26" as="geometry" />
        </mxCell>
        <mxCell id="wMsCpwQgi6BDoyRRbQmV-29" value="CriterioCircuitoMenorTiempo" style="swimlane;fontStyle=1;align=center;verticalAlign=top;childLayout=stackLayout;horizontal=1;startSize=26;horizontalStack=0;resizeParent=1;resizeParentMax=0;resizeLast=0;collapsible=1;marginBottom=0;whiteSpace=wrap;html=1;" parent="1" vertex="1">
          <mxGeometry x="-800" y="-197" width="190" height="52" as="geometry" />
        </mxCell>
        <mxCell id="wMsCpwQgi6BDoyRRbQmV-32" value="+ buscar(List&amp;lt;CircuitoMaritimo&amp;gt;)" style="text;strokeColor=none;fillColor=none;align=left;verticalAlign=top;spacingLeft=4;spacingRight=4;overflow=hidden;rotatable=0;points=[[0,0.5],[1,0.5]];portConstraint=eastwest;whiteSpace=wrap;html=1;" parent="wMsCpwQgi6BDoyRRbQmV-29" vertex="1">
          <mxGeometry y="26" width="190" height="26" as="geometry" />
        </mxCell>
        <mxCell id="wMsCpwQgi6BDoyRRbQmV-33" value="CriterioCircuitoMenorPrecio" style="swimlane;fontStyle=1;align=center;verticalAlign=top;childLayout=stackLayout;horizontal=1;startSize=26;horizontalStack=0;resizeParent=1;resizeParentMax=0;resizeLast=0;collapsible=1;marginBottom=0;whiteSpace=wrap;html=1;" parent="1" vertex="1">
          <mxGeometry x="-600" y="-197" width="190" height="52" as="geometry" />
        </mxCell>
        <mxCell id="wMsCpwQgi6BDoyRRbQmV-36" value="+ buscar(List&amp;lt;CircuitoMaritimo&amp;gt;)" style="text;strokeColor=none;fillColor=none;align=left;verticalAlign=top;spacingLeft=4;spacingRight=4;overflow=hidden;rotatable=0;points=[[0,0.5],[1,0.5]];portConstraint=eastwest;whiteSpace=wrap;html=1;" parent="wMsCpwQgi6BDoyRRbQmV-33" vertex="1">
          <mxGeometry y="26" width="190" height="26" as="geometry" />
        </mxCell>
        <mxCell id="wMsCpwQgi6BDoyRRbQmV-37" value="CriterioCircuitoMenorNroDeTramos" style="swimlane;fontStyle=1;align=center;verticalAlign=top;childLayout=stackLayout;horizontal=1;startSize=26;horizontalStack=0;resizeParent=1;resizeParentMax=0;resizeLast=0;collapsible=1;marginBottom=0;whiteSpace=wrap;html=1;" parent="1" vertex="1">
          <mxGeometry x="-400" y="-197" width="220" height="52" as="geometry" />
        </mxCell>
        <mxCell id="wMsCpwQgi6BDoyRRbQmV-40" value="+ buscar(List&amp;lt;CircuitoMaritimo&amp;gt;)" style="text;strokeColor=none;fillColor=none;align=left;verticalAlign=top;spacingLeft=4;spacingRight=4;overflow=hidden;rotatable=0;points=[[0,0.5],[1,0.5]];portConstraint=eastwest;whiteSpace=wrap;html=1;" parent="wMsCpwQgi6BDoyRRbQmV-37" vertex="1">
          <mxGeometry y="26" width="220" height="26" as="geometry" />
        </mxCell>
        <mxCell id="wMsCpwQgi6BDoyRRbQmV-47" value="&lt;p style=&quot;margin:0px;margin-top:4px;text-align:center;&quot;&gt;&lt;i&gt;&amp;lt;&amp;lt;Interface&amp;gt;&amp;gt;&lt;/i&gt;&lt;/p&gt;&lt;p style=&quot;margin:0px;margin-top:4px;text-align:center;&quot;&gt;&lt;i&gt;&lt;b&gt;FaseDeBuque&lt;/b&gt;&lt;/i&gt;&lt;/p&gt;&lt;hr size=&quot;1&quot;&gt;&lt;p style=&quot;margin:0px;margin-left:4px;&quot;&gt;+ siguienteFase()&lt;/p&gt;&lt;p style=&quot;margin:0px;margin-left:4px;&quot;&gt;+ accionar(TerminalPortuaria):void&lt;br&gt;&lt;/p&gt;" style="verticalAlign=top;align=left;overflow=fill;fontSize=12;fontFamily=Helvetica;html=1;whiteSpace=wrap;" parent="1" vertex="1">
          <mxGeometry x="-645" y="-67" width="195" height="87" as="geometry" />
        </mxCell>
        <mxCell id="wMsCpwQgi6BDoyRRbQmV-58" style="edgeStyle=orthogonalEdgeStyle;rounded=0;orthogonalLoop=1;jettySize=auto;html=1;entryX=0.5;entryY=1.038;entryDx=0;entryDy=0;entryPerimeter=0;" parent="1" source="vE86NBOg6e0xh6bUCSpT-1" target="I0zZV60bpWjbYKbzvoeE-6" edge="1">
          <mxGeometry relative="1" as="geometry" />
        </mxCell>
        <mxCell id="wMsCpwQgi6BDoyRRbQmV-59" style="edgeStyle=orthogonalEdgeStyle;rounded=0;orthogonalLoop=1;jettySize=auto;html=1;entryX=0.5;entryY=1;entryDx=0;entryDy=0;entryPerimeter=0;exitX=0.5;exitY=0;exitDx=0;exitDy=0;" parent="1" source="v_qziSdxNHRrXzCHgyad-55" target="I0zZV60bpWjbYKbzvoeE-6" edge="1">
          <mxGeometry relative="1" as="geometry">
            <mxPoint x="250" y="598" as="sourcePoint" />
          </mxGeometry>
        </mxCell>
        <mxCell id="wMsCpwQgi6BDoyRRbQmV-60" style="edgeStyle=orthogonalEdgeStyle;rounded=0;orthogonalLoop=1;jettySize=auto;html=1;entryX=0.5;entryY=1.038;entryDx=0;entryDy=0;entryPerimeter=0;" parent="1" source="vE86NBOg6e0xh6bUCSpT-9" target="I0zZV60bpWjbYKbzvoeE-6" edge="1">
          <mxGeometry relative="1" as="geometry" />
        </mxCell>
        <mxCell id="wMsCpwQgi6BDoyRRbQmV-61" style="edgeStyle=orthogonalEdgeStyle;rounded=0;orthogonalLoop=1;jettySize=auto;html=1;entryX=0.502;entryY=1.007;entryDx=0;entryDy=0;entryPerimeter=0;" parent="1" source="wMsCpwQgi6BDoyRRbQmV-33" target="wMsCpwQgi6BDoyRRbQmV-28" edge="1">
          <mxGeometry relative="1" as="geometry" />
        </mxCell>
        <mxCell id="wMsCpwQgi6BDoyRRbQmV-62" style="edgeStyle=orthogonalEdgeStyle;rounded=0;orthogonalLoop=1;jettySize=auto;html=1;entryX=0.502;entryY=1.084;entryDx=0;entryDy=0;entryPerimeter=0;exitX=0.5;exitY=0;exitDx=0;exitDy=0;" parent="1" source="wMsCpwQgi6BDoyRRbQmV-37" target="wMsCpwQgi6BDoyRRbQmV-28" edge="1">
          <mxGeometry relative="1" as="geometry">
            <Array as="points">
              <mxPoint x="-290" y="-240" />
              <mxPoint x="-505" y="-240" />
            </Array>
            <mxPoint x="-280" y="-230" as="sourcePoint" />
          </mxGeometry>
        </mxCell>
        <mxCell id="wMsCpwQgi6BDoyRRbQmV-63" style="edgeStyle=orthogonalEdgeStyle;rounded=0;orthogonalLoop=1;jettySize=auto;html=1;entryX=0.498;entryY=1.032;entryDx=0;entryDy=0;entryPerimeter=0;" parent="1" source="wMsCpwQgi6BDoyRRbQmV-29" target="wMsCpwQgi6BDoyRRbQmV-28" edge="1">
          <mxGeometry relative="1" as="geometry" />
        </mxCell>
        <mxCell id="wMsCpwQgi6BDoyRRbQmV-65" style="edgeStyle=orthogonalEdgeStyle;rounded=0;orthogonalLoop=1;jettySize=auto;html=1;entryX=0.495;entryY=1.038;entryDx=0;entryDy=0;entryPerimeter=0;" parent="1" source="I0zZV60bpWjbYKbzvoeE-38" target="I0zZV60bpWjbYKbzvoeE-33" edge="1">
          <mxGeometry relative="1" as="geometry" />
        </mxCell>
        <mxCell id="v_qziSdxNHRrXzCHgyad-48" value="Text" style="edgeLabel;html=1;align=center;verticalAlign=middle;resizable=0;points=[];" parent="wMsCpwQgi6BDoyRRbQmV-65" vertex="1" connectable="0">
          <mxGeometry x="-0.3104" y="-3" relative="1" as="geometry">
            <mxPoint as="offset" />
          </mxGeometry>
        </mxCell>
        <mxCell id="wMsCpwQgi6BDoyRRbQmV-66" style="edgeStyle=orthogonalEdgeStyle;rounded=0;orthogonalLoop=1;jettySize=auto;html=1;entryX=0.495;entryY=1.038;entryDx=0;entryDy=0;entryPerimeter=0;" parent="1" source="I0zZV60bpWjbYKbzvoeE-42" target="I0zZV60bpWjbYKbzvoeE-33" edge="1">
          <mxGeometry relative="1" as="geometry" />
        </mxCell>
        <mxCell id="wMsCpwQgi6BDoyRRbQmV-68" style="edgeStyle=orthogonalEdgeStyle;rounded=0;orthogonalLoop=1;jettySize=auto;html=1;entryX=0.495;entryY=1.013;entryDx=0;entryDy=0;entryPerimeter=0;" parent="1" source="I0zZV60bpWjbYKbzvoeE-34" target="I0zZV60bpWjbYKbzvoeE-33" edge="1">
          <mxGeometry relative="1" as="geometry" />
        </mxCell>
        <mxCell id="wMsCpwQgi6BDoyRRbQmV-69" value="Â«AnnotationÂ»&lt;br&gt;se puede asumir que&lt;br style=&quot;border-color: var(--border-color);&quot;&gt;&lt;span style=&quot;&quot;&gt;los circuitos de las&lt;/span&gt;&lt;br style=&quot;border-color: var(--border-color);&quot;&gt;&lt;span style=&quot;&quot;&gt;navieras agregadas&amp;nbsp;&lt;/span&gt;&lt;br style=&quot;border-color: var(--border-color);&quot;&gt;&lt;span style=&quot;&quot;&gt;incluyen a la terminal,&lt;/span&gt;&lt;br style=&quot;border-color: var(--border-color);&quot;&gt;&lt;span style=&quot;&quot;&gt;por lo que circuitos no&amp;nbsp;&lt;/span&gt;&lt;br style=&quot;border-color: var(--border-color);&quot;&gt;&lt;span style=&quot;&quot;&gt;seria necesario&lt;/span&gt;" style="html=1;dropTarget=0;whiteSpace=wrap;" parent="1" vertex="1">
          <mxGeometry x="250" y="30" width="180" height="110" as="geometry" />
        </mxCell>
        <mxCell id="wMsCpwQgi6BDoyRRbQmV-70" value="" style="shape=module;jettyWidth=8;jettyHeight=4;" parent="wMsCpwQgi6BDoyRRbQmV-69" vertex="1">
          <mxGeometry x="1" width="20" height="20" relative="1" as="geometry">
            <mxPoint x="-27" y="7" as="offset" />
          </mxGeometry>
        </mxCell>
        <mxCell id="wMsCpwQgi6BDoyRRbQmV-71" value="Viaje" style="swimlane;fontStyle=1;align=center;verticalAlign=top;childLayout=stackLayout;horizontal=1;startSize=26;horizontalStack=0;resizeParent=1;resizeParentMax=0;resizeLast=0;collapsible=1;marginBottom=0;whiteSpace=wrap;html=1;" parent="1" vertex="1">
          <mxGeometry x="1241" y="-241" width="160" height="114" as="geometry" />
        </mxCell>
        <mxCell id="wMsCpwQgi6BDoyRRbQmV-72" value="+ circuito: CircuitoMaritimo&lt;br&gt;+ buque: Buque&lt;br&gt;+ fecha_de_salida: Date" style="text;strokeColor=none;fillColor=none;align=left;verticalAlign=top;spacingLeft=4;spacingRight=4;overflow=hidden;rotatable=0;points=[[0,0.5],[1,0.5]];portConstraint=eastwest;whiteSpace=wrap;html=1;" parent="wMsCpwQgi6BDoyRRbQmV-71" vertex="1">
          <mxGeometry y="26" width="160" height="54" as="geometry" />
        </mxCell>
        <mxCell id="wMsCpwQgi6BDoyRRbQmV-73" value="" style="line;strokeWidth=1;fillColor=none;align=left;verticalAlign=middle;spacingTop=-1;spacingLeft=3;spacingRight=3;rotatable=0;labelPosition=right;points=[];portConstraint=eastwest;strokeColor=inherit;" parent="wMsCpwQgi6BDoyRRbQmV-71" vertex="1">
          <mxGeometry y="80" width="160" height="8" as="geometry" />
        </mxCell>
        <mxCell id="wMsCpwQgi6BDoyRRbQmV-74" value="+ method(type): type" style="text;strokeColor=none;fillColor=none;align=left;verticalAlign=top;spacingLeft=4;spacingRight=4;overflow=hidden;rotatable=0;points=[[0,0.5],[1,0.5]];portConstraint=eastwest;whiteSpace=wrap;html=1;" parent="wMsCpwQgi6BDoyRRbQmV-71" vertex="1">
          <mxGeometry y="88" width="160" height="26" as="geometry" />
        </mxCell>
        <mxCell id="wMsCpwQgi6BDoyRRbQmV-77" style="edgeStyle=orthogonalEdgeStyle;rounded=0;orthogonalLoop=1;jettySize=auto;html=1;exitX=1;exitY=0.5;exitDx=0;exitDy=0;entryX=0;entryY=0.25;entryDx=0;entryDy=0;" parent="1" source="ABUvw_rNZOJrgvvg1hrZ-2" target="wMsCpwQgi6BDoyRRbQmV-71" edge="1">
          <mxGeometry relative="1" as="geometry" />
        </mxCell>
        <mxCell id="wMsCpwQgi6BDoyRRbQmV-78" value="viajes" style="edgeLabel;html=1;align=center;verticalAlign=middle;resizable=0;points=[];" parent="wMsCpwQgi6BDoyRRbQmV-77" connectable="0" vertex="1">
          <mxGeometry x="-0.9254" y="2" relative="1" as="geometry">
            <mxPoint x="10" y="-6" as="offset" />
          </mxGeometry>
        </mxCell>
        <mxCell id="wMsCpwQgi6BDoyRRbQmV-80" value="Â«AnnotationÂ»&lt;br&gt;&lt;br&gt;se admite un if para validar&amp;nbsp;&lt;br style=&quot;border-color: var(--border-color);&quot;&gt;&lt;span style=&quot;&quot;&gt;que el tramo a agregar es&amp;nbsp;&lt;/span&gt;&lt;br style=&quot;border-color: var(--border-color);&quot;&gt;&lt;span style=&quot;&quot;&gt;compatible con el ultimo tramo&lt;/span&gt;" style="html=1;dropTarget=0;whiteSpace=wrap;" parent="1" vertex="1">
          <mxGeometry x="1120" y="200" width="180" height="90" as="geometry" />
        </mxCell>
        <mxCell id="wMsCpwQgi6BDoyRRbQmV-81" value="" style="shape=module;jettyWidth=8;jettyHeight=4;" parent="wMsCpwQgi6BDoyRRbQmV-80" vertex="1">
          <mxGeometry x="1" width="20" height="20" relative="1" as="geometry">
            <mxPoint x="-27" y="7" as="offset" />
          </mxGeometry>
        </mxCell>
        <mxCell id="v_qziSdxNHRrXzCHgyad-1" value="&lt;p style=&quot;margin:0px;margin-top:4px;text-align:center;&quot;&gt;&lt;i&gt;&amp;lt;&amp;lt;Interface&amp;gt;&amp;gt;&lt;/i&gt;&lt;/p&gt;&lt;p style=&quot;margin:0px;margin-top:4px;text-align:center;&quot;&gt;&lt;i&gt;&lt;b&gt;Servicio&lt;/b&gt;&lt;/i&gt;&lt;/p&gt;&lt;hr size=&quot;1&quot;&gt;&lt;p style=&quot;margin:0px;margin-left:4px;&quot;&gt;+ costo():int&lt;br&gt;&lt;/p&gt;" style="verticalAlign=top;align=left;overflow=fill;fontSize=12;fontFamily=Helvetica;html=1;whiteSpace=wrap;" parent="1" vertex="1">
          <mxGeometry x="-750" y="460" width="190" height="87" as="geometry" />
        </mxCell>
        <mxCell id="v_qziSdxNHRrXzCHgyad-41" style="edgeStyle=orthogonalEdgeStyle;rounded=0;orthogonalLoop=1;jettySize=auto;html=1;exitX=1;exitY=0.25;exitDx=0;exitDy=0;entryX=0;entryY=1;entryDx=0;entryDy=0;" parent="1" source="v_qziSdxNHRrXzCHgyad-14" target="v_qziSdxNHRrXzCHgyad-1" edge="1">
          <mxGeometry relative="1" as="geometry" />
        </mxCell>
        <mxCell id="v_qziSdxNHRrXzCHgyad-14" value="Lavado" style="swimlane;fontStyle=1;align=center;verticalAlign=top;childLayout=stackLayout;horizontal=1;startSize=26;horizontalStack=0;resizeParent=1;resizeParentMax=0;resizeLast=0;collapsible=1;marginBottom=0;whiteSpace=wrap;html=1;" parent="1" vertex="1">
          <mxGeometry x="-987" y="600" width="160" height="52" as="geometry" />
        </mxCell>
        <mxCell id="v_qziSdxNHRrXzCHgyad-17" value="+ costo(): int" style="text;strokeColor=none;fillColor=none;align=left;verticalAlign=top;spacingLeft=4;spacingRight=4;overflow=hidden;rotatable=0;points=[[0,0.5],[1,0.5]];portConstraint=eastwest;whiteSpace=wrap;html=1;" parent="v_qziSdxNHRrXzCHgyad-14" vertex="1">
          <mxGeometry y="26" width="160" height="26" as="geometry" />
        </mxCell>
        <mxCell id="v_qziSdxNHRrXzCHgyad-42" style="edgeStyle=orthogonalEdgeStyle;rounded=0;orthogonalLoop=1;jettySize=auto;html=1;exitX=0;exitY=0.25;exitDx=0;exitDy=0;entryX=1;entryY=1;entryDx=0;entryDy=0;" parent="1" source="v_qziSdxNHRrXzCHgyad-22" target="v_qziSdxNHRrXzCHgyad-1" edge="1">
          <mxGeometry relative="1" as="geometry" />
        </mxCell>
        <mxCell id="v_qziSdxNHRrXzCHgyad-22" value="Almacenamiento" style="swimlane;fontStyle=1;align=center;verticalAlign=top;childLayout=stackLayout;horizontal=1;startSize=26;horizontalStack=0;resizeParent=1;resizeParentMax=0;resizeLast=0;collapsible=1;marginBottom=0;whiteSpace=wrap;html=1;" parent="1" vertex="1">
          <mxGeometry x="-470" y="600" width="160" height="94" as="geometry" />
        </mxCell>
        <mxCell id="v_qziSdxNHRrXzCHgyad-23" value="&lt;div&gt;- cantDias : int&lt;/div&gt;&lt;div&gt;-costoDia: int&lt;br&gt;&lt;/div&gt;" style="text;strokeColor=none;fillColor=none;align=left;verticalAlign=top;spacingLeft=4;spacingRight=4;overflow=hidden;rotatable=0;points=[[0,0.5],[1,0.5]];portConstraint=eastwest;whiteSpace=wrap;html=1;" parent="v_qziSdxNHRrXzCHgyad-22" vertex="1">
          <mxGeometry y="26" width="160" height="34" as="geometry" />
        </mxCell>
        <mxCell id="v_qziSdxNHRrXzCHgyad-24" value="" style="line;strokeWidth=1;fillColor=none;align=left;verticalAlign=middle;spacingTop=-1;spacingLeft=3;spacingRight=3;rotatable=0;labelPosition=right;points=[];portConstraint=eastwest;strokeColor=inherit;" parent="v_qziSdxNHRrXzCHgyad-22" vertex="1">
          <mxGeometry y="60" width="160" height="8" as="geometry" />
        </mxCell>
        <mxCell id="v_qziSdxNHRrXzCHgyad-25" value="+ costo() : int" style="text;strokeColor=none;fillColor=none;align=left;verticalAlign=top;spacingLeft=4;spacingRight=4;overflow=hidden;rotatable=0;points=[[0,0.5],[1,0.5]];portConstraint=eastwest;whiteSpace=wrap;html=1;" parent="v_qziSdxNHRrXzCHgyad-22" vertex="1">
          <mxGeometry y="68" width="160" height="26" as="geometry" />
        </mxCell>
        <mxCell id="v_qziSdxNHRrXzCHgyad-40" style="edgeStyle=orthogonalEdgeStyle;rounded=0;orthogonalLoop=1;jettySize=auto;html=1;exitX=0.5;exitY=0;exitDx=0;exitDy=0;entryX=0.25;entryY=1;entryDx=0;entryDy=0;" parent="1" source="v_qziSdxNHRrXzCHgyad-26" target="v_qziSdxNHRrXzCHgyad-1" edge="1">
          <mxGeometry relative="1" as="geometry" />
        </mxCell>
        <mxCell id="v_qziSdxNHRrXzCHgyad-26" value="Electricidad" style="swimlane;fontStyle=1;align=center;verticalAlign=top;childLayout=stackLayout;horizontal=1;startSize=26;horizontalStack=0;resizeParent=1;resizeParentMax=0;resizeLast=0;collapsible=1;marginBottom=0;whiteSpace=wrap;html=1;" parent="1" vertex="1">
          <mxGeometry x="-827" y="710" width="160" height="106" as="geometry" />
        </mxCell>
        <mxCell id="v_qziSdxNHRrXzCHgyad-27" value="&lt;div&gt;- horaInicio : date&lt;/div&gt;&lt;div&gt;- horaFin : date&lt;br&gt;&lt;/div&gt;&lt;div&gt;- costoKW: int&lt;br&gt;&lt;/div&gt;" style="text;strokeColor=none;fillColor=none;align=left;verticalAlign=top;spacingLeft=4;spacingRight=4;overflow=hidden;rotatable=0;points=[[0,0.5],[1,0.5]];portConstraint=eastwest;whiteSpace=wrap;html=1;" parent="v_qziSdxNHRrXzCHgyad-26" vertex="1">
          <mxGeometry y="26" width="160" height="54" as="geometry" />
        </mxCell>
        <mxCell id="v_qziSdxNHRrXzCHgyad-29" value="+ costo() : int" style="text;strokeColor=none;fillColor=none;align=left;verticalAlign=top;spacingLeft=4;spacingRight=4;overflow=hidden;rotatable=0;points=[[0,0.5],[1,0.5]];portConstraint=eastwest;whiteSpace=wrap;html=1;" parent="v_qziSdxNHRrXzCHgyad-26" vertex="1">
          <mxGeometry y="80" width="160" height="26" as="geometry" />
        </mxCell>
        <mxCell id="v_qziSdxNHRrXzCHgyad-43" style="edgeStyle=orthogonalEdgeStyle;rounded=0;orthogonalLoop=1;jettySize=auto;html=1;exitX=0.5;exitY=0;exitDx=0;exitDy=0;entryX=0.75;entryY=1;entryDx=0;entryDy=0;" parent="1" source="v_qziSdxNHRrXzCHgyad-30" target="v_qziSdxNHRrXzCHgyad-1" edge="1">
          <mxGeometry relative="1" as="geometry" />
        </mxCell>
        <mxCell id="v_qziSdxNHRrXzCHgyad-30" value="Pesado" style="swimlane;fontStyle=1;align=center;verticalAlign=top;childLayout=stackLayout;horizontal=1;startSize=26;horizontalStack=0;resizeParent=1;resizeParentMax=0;resizeLast=0;collapsible=1;marginBottom=0;whiteSpace=wrap;html=1;" parent="1" vertex="1">
          <mxGeometry x="-630" y="710" width="160" height="52" as="geometry" />
        </mxCell>
        <mxCell id="v_qziSdxNHRrXzCHgyad-33" value="+ costo() : int" style="text;strokeColor=none;fillColor=none;align=left;verticalAlign=top;spacingLeft=4;spacingRight=4;overflow=hidden;rotatable=0;points=[[0,0.5],[1,0.5]];portConstraint=eastwest;whiteSpace=wrap;html=1;" parent="v_qziSdxNHRrXzCHgyad-30" vertex="1">
          <mxGeometry y="26" width="160" height="26" as="geometry" />
        </mxCell>
        <mxCell id="v_qziSdxNHRrXzCHgyad-49" value="Conductor" style="swimlane;fontStyle=1;align=center;verticalAlign=top;childLayout=stackLayout;horizontal=1;startSize=26;horizontalStack=0;resizeParent=1;resizeParentMax=0;resizeLast=0;collapsible=1;marginBottom=0;whiteSpace=wrap;html=1;" parent="1" vertex="1">
          <mxGeometry x="827" y="-184" width="160" height="86" as="geometry" />
        </mxCell>
        <mxCell id="v_qziSdxNHRrXzCHgyad-50" value="- nombre: String" style="text;strokeColor=none;fillColor=none;align=left;verticalAlign=top;spacingLeft=4;spacingRight=4;overflow=hidden;rotatable=0;points=[[0,0.5],[1,0.5]];portConstraint=eastwest;whiteSpace=wrap;html=1;" parent="v_qziSdxNHRrXzCHgyad-49" vertex="1">
          <mxGeometry y="26" width="160" height="26" as="geometry" />
        </mxCell>
        <mxCell id="v_qziSdxNHRrXzCHgyad-52" value="" style="line;strokeWidth=1;fillColor=none;align=left;verticalAlign=middle;spacingTop=-1;spacingLeft=3;spacingRight=3;rotatable=0;labelPosition=right;points=[];portConstraint=eastwest;strokeColor=inherit;" parent="v_qziSdxNHRrXzCHgyad-49" vertex="1">
          <mxGeometry y="52" width="160" height="8" as="geometry" />
        </mxCell>
        <mxCell id="v_qziSdxNHRrXzCHgyad-53" value="+ getNombre(): String" style="text;strokeColor=none;fillColor=none;align=left;verticalAlign=top;spacingLeft=4;spacingRight=4;overflow=hidden;rotatable=0;points=[[0,0.5],[1,0.5]];portConstraint=eastwest;whiteSpace=wrap;html=1;" parent="v_qziSdxNHRrXzCHgyad-49" vertex="1">
          <mxGeometry y="60" width="160" height="26" as="geometry" />
        </mxCell>
        <mxCell id="xL51eRAqZsQXDMl_Cjis-1" value="&lt;div&gt;OrdenDeExportacion&lt;/div&gt;&lt;div&gt;&lt;br&gt;&lt;/div&gt;" style="swimlane;fontStyle=1;align=center;verticalAlign=top;childLayout=stackLayout;horizontal=1;startSize=26;horizontalStack=0;resizeParent=1;resizeParentMax=0;resizeLast=0;collapsible=1;marginBottom=0;whiteSpace=wrap;html=1;" parent="1" vertex="1">
          <mxGeometry y="-450" width="160" height="86" as="geometry" />
        </mxCell>
        <mxCell id="xL51eRAqZsQXDMl_Cjis-2" value="+ shipper: Shipper" style="text;strokeColor=none;fillColor=none;align=left;verticalAlign=top;spacingLeft=4;spacingRight=4;overflow=hidden;rotatable=0;points=[[0,0.5],[1,0.5]];portConstraint=eastwest;whiteSpace=wrap;html=1;" parent="xL51eRAqZsQXDMl_Cjis-1" vertex="1">
          <mxGeometry y="26" width="160" height="26" as="geometry" />
        </mxCell>
        <mxCell id="xL51eRAqZsQXDMl_Cjis-3" value="" style="line;strokeWidth=1;fillColor=none;align=left;verticalAlign=middle;spacingTop=-1;spacingLeft=3;spacingRight=3;rotatable=0;labelPosition=right;points=[];portConstraint=eastwest;strokeColor=inherit;" parent="xL51eRAqZsQXDMl_Cjis-1" vertex="1">
          <mxGeometry y="52" width="160" height="8" as="geometry" />
        </mxCell>
        <mxCell id="xL51eRAqZsQXDMl_Cjis-4" value="+ method(type): type" style="text;strokeColor=none;fillColor=none;align=left;verticalAlign=top;spacingLeft=4;spacingRight=4;overflow=hidden;rotatable=0;points=[[0,0.5],[1,0.5]];portConstraint=eastwest;whiteSpace=wrap;html=1;" parent="xL51eRAqZsQXDMl_Cjis-1" vertex="1">
          <mxGeometry y="60" width="160" height="26" as="geometry" />
        </mxCell>
        <mxCell id="xL51eRAqZsQXDMl_Cjis-9" style="edgeStyle=orthogonalEdgeStyle;rounded=0;orthogonalLoop=1;jettySize=auto;html=1;entryX=0.5;entryY=1;entryDx=0;entryDy=0;" parent="1" source="xL51eRAqZsQXDMl_Cjis-5" target="vE86NBOg6e0xh6bUCSpT-62" edge="1">
          <mxGeometry relative="1" as="geometry" />
        </mxCell>
        <mxCell id="xL51eRAqZsQXDMl_Cjis-5" value="&lt;div&gt;OrdenDeImportacion&lt;/div&gt;" style="swimlane;fontStyle=1;align=center;verticalAlign=top;childLayout=stackLayout;horizontal=1;startSize=26;horizontalStack=0;resizeParent=1;resizeParentMax=0;resizeLast=0;collapsible=1;marginBottom=0;whiteSpace=wrap;html=1;" parent="1" vertex="1">
          <mxGeometry x="310" y="-450" width="160" height="86" as="geometry" />
        </mxCell>
        <mxCell id="xL51eRAqZsQXDMl_Cjis-6" value="+ consignee: Consignee" style="text;strokeColor=none;fillColor=none;align=left;verticalAlign=top;spacingLeft=4;spacingRight=4;overflow=hidden;rotatable=0;points=[[0,0.5],[1,0.5]];portConstraint=eastwest;whiteSpace=wrap;html=1;" parent="xL51eRAqZsQXDMl_Cjis-5" vertex="1">
          <mxGeometry y="26" width="160" height="26" as="geometry" />
        </mxCell>
        <mxCell id="xL51eRAqZsQXDMl_Cjis-7" value="" style="line;strokeWidth=1;fillColor=none;align=left;verticalAlign=middle;spacingTop=-1;spacingLeft=3;spacingRight=3;rotatable=0;labelPosition=right;points=[];portConstraint=eastwest;strokeColor=inherit;" parent="xL51eRAqZsQXDMl_Cjis-5" vertex="1">
          <mxGeometry y="52" width="160" height="8" as="geometry" />
        </mxCell>
        <mxCell id="xL51eRAqZsQXDMl_Cjis-8" value="+ method(type): type" style="text;strokeColor=none;fillColor=none;align=left;verticalAlign=top;spacingLeft=4;spacingRight=4;overflow=hidden;rotatable=0;points=[[0,0.5],[1,0.5]];portConstraint=eastwest;whiteSpace=wrap;html=1;" parent="xL51eRAqZsQXDMl_Cjis-5" vertex="1">
          <mxGeometry y="60" width="160" height="26" as="geometry" />
        </mxCell>
        <mxCell id="xL51eRAqZsQXDMl_Cjis-10" style="edgeStyle=orthogonalEdgeStyle;rounded=0;orthogonalLoop=1;jettySize=auto;html=1;entryX=0.501;entryY=1.032;entryDx=0;entryDy=0;entryPerimeter=0;" parent="1" source="xL51eRAqZsQXDMl_Cjis-1" target="vE86NBOg6e0xh6bUCSpT-65" edge="1">
          <mxGeometry relative="1" as="geometry" />
        </mxCell>
        <mxCell id="v_qziSdxNHRrXzCHgyad-55" value="ContainerReefer" style="swimlane;fontStyle=1;align=center;verticalAlign=top;childLayout=stackLayout;horizontal=1;startSize=26;horizontalStack=0;resizeParent=1;resizeParentMax=0;resizeLast=0;collapsible=1;marginBottom=0;whiteSpace=wrap;html=1;" parent="1" vertex="1">
          <mxGeometry x="165" y="598" width="160" height="86" as="geometry" />
        </mxCell>
        <mxCell id="v_qziSdxNHRrXzCHgyad-56" value="+kwHora: int" style="text;strokeColor=none;fillColor=none;align=left;verticalAlign=top;spacingLeft=4;spacingRight=4;overflow=hidden;rotatable=0;points=[[0,0.5],[1,0.5]];portConstraint=eastwest;whiteSpace=wrap;html=1;" parent="v_qziSdxNHRrXzCHgyad-55" vertex="1">
          <mxGeometry y="26" width="160" height="26" as="geometry" />
        </mxCell>
        <mxCell id="v_qziSdxNHRrXzCHgyad-57" value="" style="line;strokeWidth=1;fillColor=none;align=left;verticalAlign=middle;spacingTop=-1;spacingLeft=3;spacingRight=3;rotatable=0;labelPosition=right;points=[];portConstraint=eastwest;strokeColor=inherit;" parent="v_qziSdxNHRrXzCHgyad-55" vertex="1">
          <mxGeometry y="52" width="160" height="8" as="geometry" />
        </mxCell>
        <mxCell id="v_qziSdxNHRrXzCHgyad-58" value="+ consumoPorHora(): int" style="text;strokeColor=none;fillColor=none;align=left;verticalAlign=top;spacingLeft=4;spacingRight=4;overflow=hidden;rotatable=0;points=[[0,0.5],[1,0.5]];portConstraint=eastwest;whiteSpace=wrap;html=1;" parent="v_qziSdxNHRrXzCHgyad-55" vertex="1">
          <mxGeometry y="60" width="160" height="26" as="geometry" />
        </mxCell>
        <mxCell id="eufe9mDObSMy9DqYyHRr-1" value="conductores" style="endArrow=block;endFill=1;html=1;edgeStyle=orthogonalEdgeStyle;align=left;verticalAlign=top;rounded=0;exitX=1;exitY=0.5;exitDx=0;exitDy=0;entryX=0;entryY=0.5;entryDx=0;entryDy=0;" parent="1" source="I0zZV60bpWjbYKbzvoeE-15" target="v_qziSdxNHRrXzCHgyad-50" edge="1">
          <mxGeometry x="-0.5557" y="-2" relative="1" as="geometry">
            <mxPoint x="680" y="-130" as="sourcePoint" />
            <mxPoint x="840" y="-130" as="targetPoint" />
            <mxPoint as="offset" />
          </mxGeometry>
        </mxCell>
        <mxCell id="eufe9mDObSMy9DqYyHRr-2" value="*" style="edgeLabel;resizable=0;html=1;align=left;verticalAlign=bottom;fontSize=21;" parent="eufe9mDObSMy9DqYyHRr-1" connectable="0" vertex="1">
          <mxGeometry x="-1" relative="1" as="geometry">
            <mxPoint x="140" y="-9" as="offset" />
          </mxGeometry>
        </mxCell>
        <mxCell id="eufe9mDObSMy9DqYyHRr-4" value="camiones" style="endArrow=block;endFill=1;html=1;edgeStyle=orthogonalEdgeStyle;align=left;verticalAlign=top;rounded=0;exitX=1;exitY=0.5;exitDx=0;exitDy=0;entryX=0;entryY=0.5;entryDx=0;entryDy=0;" parent="1" source="I0zZV60bpWjbYKbzvoeE-8" target="I0zZV60bpWjbYKbzvoeE-26" edge="1">
          <mxGeometry x="-0.8655" y="22" relative="1" as="geometry">
            <mxPoint x="690" y="-220" as="sourcePoint" />
            <mxPoint x="790" y="-300" as="targetPoint" />
            <Array as="points">
              <mxPoint x="710" y="-158" />
              <mxPoint x="710" y="-288" />
            </Array>
            <mxPoint as="offset" />
          </mxGeometry>
        </mxCell>
        <mxCell id="eufe9mDObSMy9DqYyHRr-5" value="*" style="edgeLabel;resizable=0;html=1;align=left;verticalAlign=bottom;fontSize=19;" parent="eufe9mDObSMy9DqYyHRr-4" connectable="0" vertex="1">
          <mxGeometry x="-1" relative="1" as="geometry">
            <mxPoint x="140" y="-122" as="offset" />
          </mxGeometry>
        </mxCell>
        <mxCell id="yJXyIbkkPUpZtxzlh9dZ-1" value="Punto" style="swimlane;fontStyle=1;align=center;verticalAlign=top;childLayout=stackLayout;horizontal=1;startSize=26;horizontalStack=0;resizeParent=1;resizeParentMax=0;resizeLast=0;collapsible=1;marginBottom=0;whiteSpace=wrap;html=1;" parent="1" vertex="1">
          <mxGeometry x="1970" y="86" width="210" height="110" as="geometry" />
        </mxCell>
        <mxCell id="yJXyIbkkPUpZtxzlh9dZ-2" value="- X: Double&lt;br&gt;- Y: Double" style="text;strokeColor=none;fillColor=none;align=left;verticalAlign=top;spacingLeft=4;spacingRight=4;overflow=hidden;rotatable=0;points=[[0,0.5],[1,0.5]];portConstraint=eastwest;whiteSpace=wrap;html=1;" parent="yJXyIbkkPUpZtxzlh9dZ-1" vertex="1">
          <mxGeometry y="26" width="210" height="34" as="geometry" />
        </mxCell>
        <mxCell id="yJXyIbkkPUpZtxzlh9dZ-3" value="" style="line;strokeWidth=1;fillColor=none;align=left;verticalAlign=middle;spacingTop=-1;spacingLeft=3;spacingRight=3;rotatable=0;labelPosition=right;points=[];portConstraint=eastwest;strokeColor=inherit;" parent="yJXyIbkkPUpZtxzlh9dZ-1" vertex="1">
          <mxGeometry y="60" width="210" height="8" as="geometry" />
        </mxCell>
        <mxCell id="yJXyIbkkPUpZtxzlh9dZ-4" value="+ first(): Double&lt;br&gt;+ second():Double" style="text;strokeColor=none;fillColor=none;align=left;verticalAlign=top;spacingLeft=4;spacingRight=4;overflow=hidden;rotatable=0;points=[[0,0.5],[1,0.5]];portConstraint=eastwest;whiteSpace=wrap;html=1;" parent="yJXyIbkkPUpZtxzlh9dZ-1" vertex="1">
          <mxGeometry y="68" width="210" height="42" as="geometry" />
        </mxCell>
        <mxCell id="yJXyIbkkPUpZtxzlh9dZ-5" style="edgeStyle=orthogonalEdgeStyle;rounded=0;orthogonalLoop=1;jettySize=auto;html=1;exitX=1;exitY=0.5;exitDx=0;exitDy=0;entryX=0;entryY=0.5;entryDx=0;entryDy=0;" parent="1" source="I0zZV60bpWjbYKbzvoeE-17" target="yJXyIbkkPUpZtxzlh9dZ-2" edge="1">
          <mxGeometry relative="1" as="geometry" />
        </mxCell>
      </root>
    </mxGraphModel>
  </diagram>
</mxfile>
